<?xml version="1.0" encoding="utf-8"?>
<!-- Generator: Adobe Illustrator 19.1.0, SVG Export Plug-In . SVG Version: 6.00 Build 0)  -->
<svg version="1.1" id="Layer_1" xmlns="http://www.w3.org/2000/svg" xmlns:xlink="http://www.w3.org/1999/xlink" x="0px" y="0px"
	 viewBox="0 0 50 50" style="enable-background:new 0 0 50 50;" xml:space="preserve">
<path id="Facebook" d="M18.5,10.1c0,1.2,0,6.7,0,6.7h-4.9V25h4.9v24.4h10.1V25h6.8c0,0,0.6-3.9,0.9-8.2c-0.9,0-7.7,0-7.7,0
	s0-4.8,0-5.6c0-0.8,1.1-2,2.2-2c1.1,0,3.4,0,5.5,0c0-1.1,0-5,0-8.5c-2.8,0-6.1,0-7.5,0C18.3,0.7,18.5,8.9,18.5,10.1z"/>
</svg>
