<?xml version="1.0" encoding="utf-8"?>
<!-- Generator: Adobe Illustrator 19.1.0, SVG Export Plug-In . SVG Version: 6.00 Build 0)  -->
<svg version="1.1" id="Layer_1" xmlns="http://www.w3.org/2000/svg" xmlns:xlink="http://www.w3.org/1999/xlink" x="0px" y="0px"
	 viewBox="0 0 50 50" style="enable-background:new 0 0 50 50;" xml:space="preserve">
<path id="LinkedIn" d="M49.3,30.3v18H38.9V31.5c0-4.2-1.5-7.1-5.3-7.1c-2.9,0-4.6,1.9-5.4,3.8c-0.3,0.7-0.3,1.6-0.3,2.5v17.5H17.5
	c0,0,0.1-28.4,0-31.4h10.4v4.4c0,0,0,0.1-0.1,0.1h0.1v-0.1c1.4-2.1,3.9-5.2,9.4-5.2C44.2,16.1,49.3,20.6,49.3,30.3z M6.6,1.7
	C3,1.7,0.7,4.1,0.7,7.2c0,3,2.3,5.4,5.8,5.4h0.1c3.6,0,5.9-2.4,5.9-5.4C12.3,4.1,10.1,1.7,6.6,1.7z M1.3,48.3h10.4V16.9H1.3V48.3z"
	/>
</svg>
