<?xml version="1.0" encoding="utf-8"?>
<!-- Generator: Adobe Illustrator 19.1.0, SVG Export Plug-In . SVG Version: 6.00 Build 0)  -->
<svg version="1.1" id="Layer_1" xmlns="http://www.w3.org/2000/svg" xmlns:xlink="http://www.w3.org/1999/xlink" x="0px" y="0px"
	 viewBox="0 0 50 50" style="enable-background:new 0 0 50 50;" xml:space="preserve">
<path d="M39,20.8v-5.4c0-7.5-6.5-13.6-14-13.6c-7.5,0-14,6.1-14,13.6V21h0.4C9.1,21,7,22.6,7,24.9v19.3c0,2.3,2.1,3.8,4.4,3.8h27.2
	c2.3,0,4.4-1.6,4.4-3.8V24.9C43,22.7,41,20.8,39,20.8z M27,34.9V43h-4v-8.1c-1-0.7-1.8-1.8-1.8-3.2c0-2.1,1.7-3.8,3.9-3.8
	c2.1,0,3.8,1.7,3.8,3.8C28.9,33,28,34.2,27,34.9z M34,21H16v-4.7c0-5,4-9.1,9-9.1c5,0,9,4.1,9,9.1V21z"/>
</svg>
