<?xml version="1.0" encoding="utf-8"?>
<!-- Generator: Adobe Illustrator 19.1.0, SVG Export Plug-In . SVG Version: 6.00 Build 0)  -->
<svg version="1.1" id="Layer_1" xmlns="http://www.w3.org/2000/svg" xmlns:xlink="http://www.w3.org/1999/xlink" x="0px" y="0px"
	 viewBox="0 0 50 50" style="enable-background:new 0 0 50 50;" xml:space="preserve">
<g>
	<path d="M47.5,25.6c-1.1,0-2,0.8-2.2,1.9c-2.7-0.1-7.2-0.2-11.8-0.2c0,0.1,0,0.3,0,0.4c0,0.3-0.1,0.5-0.1,0.8
		c4.6,0,9.2-0.1,11.9-0.2c0.2,1.1,1.1,1.9,2.2,1.9c1.3,0,2.3-1,2.3-2.3C49.7,26.7,48.7,25.6,47.5,25.6"/>
	<path d="M25.1,30.7C25,30.7,25,30.6,25.1,30.7c-0.1-0.1-0.2-0.2-0.2-0.2c0,0,0,0,0,0c-0.1-0.1-0.1-0.1-0.2-0.2c0,0,0,0-0.1-0.1
		c0,0-0.1-0.1-0.1-0.1c0,0,0,0,0,0c-0.9,0.6-1.7,1.1-2.4,1.5c-0.4-0.3-0.8-0.5-1.3-0.5c-0.5,0-0.9,0.2-1.3,0.6
		C19.2,32,19,32.4,19,32.9c0,1,0.9,1.8,1.9,1.7c1,0,1.7-0.8,1.7-1.8v-0.1c0-0.1,0-0.2-0.1-0.4c0,0,0.6-0.3,1.4-0.8
		c0.4-0.2,0.9-0.5,1.3-0.8c0,0,0,0,0,0C25.2,30.8,25.1,30.7,25.1,30.7"/>
	<path d="M24.6,25.7c0,0,0.1-0.1,0.1-0.1c0,0,0.1-0.1,0.1-0.1c0,0,0.1-0.1,0.1-0.1c0,0,0-0.1,0.1-0.1c0,0,0.1-0.1,0.1-0.1v0
		c0,0,0.1-0.1,0.1-0.1c0,0,0,0,0-0.1c0,0,0,0,0.1-0.1l0,0c-2.5-2-4.1-3-4.9-3.5c0-0.1,0.1-0.2,0.1-0.3l0-0.3
		c-0.2-0.8-0.9-1.3-1.7-1.1c-0.4,0.1-0.7,0.3-0.9,0.6c-0.2,0.2-0.2,0.5-0.2,0.8c0,0.1,0,0.2,0,0.3c0.1,0.4,0.3,0.7,0.6,0.9
		c0.3,0.2,0.7,0.3,1.1,0.2c0.2,0,0.4-0.1,0.6-0.3c0.1,0.1,1.8,1.4,1.8,1.4l2.9,2.2c0,0,0,0,0-0.1C24.6,25.8,24.6,25.8,24.6,25.7"/>
	<path d="M23.9,27.8c0-0.2,0-0.4,0.1-0.5c-4.1,0-14.7,0.2-18.3,0.2c-0.1-1.2-1.2-2.1-2.6-2.1c-1.5,0-2.8,1.1-2.9,2.4
		c-0.1,1.3,1.1,2.4,2.6,2.4c1.3,0,2.4-0.8,2.7-1.8c3.5,0.1,14.3,0.2,18.4,0.2C23.9,28.3,23.9,28.1,23.9,27.8"/>
	<path d="M32.3,30.3C32.3,30.3,32.3,30.4,32.3,30.3c-0.1,0.1-0.1,0.1-0.1,0.1c0,0-0.1,0.1-0.1,0.1c0,0,0,0,0,0
		c-0.1,0-0.1,0.1-0.2,0.1c0,0,0,0,0,0c-0.1,0.1-0.1,0.1-0.2,0.2c0,0,0,0-0.1,0.1c0.4,0.2,0.7,0.5,1.1,0.7c0,0.1-0.1,0.3-0.1,0.4
		c0,0.6,0.5,1.2,1.2,1.2c0.6,0,1.2-0.5,1.2-1.2c0-0.6-0.5-1.2-1.2-1.2c-0.2,0-0.4,0.1-0.6,0.2C32.9,30.8,32.7,30.5,32.3,30.3
		C32.3,30.3,32.3,30.3,32.3,30.3C32.3,30.3,32.3,30.3,32.3,30.3"/>
	<path d="M32.9,25.6c0.4-0.3,1.1-0.7,1.3-0.8c1.6-0.9,3.3-2.1,4.9-3.2c0.3,0.3,0.7,0.5,1.2,0.5c1,0,1.8-0.8,1.8-1.8
		c0-1-0.8-1.8-1.8-1.8c-1,0-1.8,0.8-1.8,1.8c0,0.2,0,0.4,0.1,0.6c-1.7,0.9-3.5,2-5,3c-0.3,0.2-1.1,0.7-1.5,0.9
		c0.3,0.2,0.5,0.5,0.7,0.8c0,0,0,0,0,0C32.8,25.5,32.9,25.5,32.9,25.6"/>
	<path d="M28.4,20.3c-0.1,1.1-0.2,2.2-0.2,3.3c0.3,0,0.5-0.1,0.8-0.1c0.2,0,0.4,0,0.6,0c0-1.1,0-2.2-0.1-3.2c1.1-0.2,2-1.2,2-2.5
		c0-1.4-1.1-2.5-2.5-2.5c-1.4,0-2.5,1.1-2.5,2.5C26.4,19.1,27.3,20.1,28.4,20.3"/>
	<path d="M29.5,24.5c-0.2,0-0.4,0-0.6,0c-0.2,0-0.5,0-0.7,0.1c-1.8,0.3-3.1,1.6-3.2,3.3c-0.1,1.8,1.4,3.3,3.5,3.3
		c2.1,0,3.8-1.5,3.9-3.3C32.5,26.1,31.2,24.7,29.5,24.5"/>
</g>
</svg>
