<?xml version="1.0" encoding="utf-8"?>
<!-- Generator: Adobe Illustrator 19.1.0, SVG Export Plug-In . SVG Version: 6.00 Build 0)  -->
<svg version="1.1" id="Layer_1" xmlns="http://www.w3.org/2000/svg" xmlns:xlink="http://www.w3.org/1999/xlink" x="0px" y="0px"
	 viewBox="0 0 50 50" style="enable-background:new 0 0 50 50;" xml:space="preserve">
<path id="Twitter__x28_alt_x29_" d="M43.8,23.1c2.7-0.2,4.6-1.5,5.3-3.2c-1,0.6-4,1.3-5.7,0.6c-0.1-0.4-0.2-0.8-0.3-1.1
	c-1.3-4.7-5.7-8.5-10.3-8.1c0.4-0.2,0.8-0.3,1.1-0.4c0.5-0.2,3.5-0.7,3-1.7c-0.4-0.9-4,0.7-4.7,0.9c0.9-0.3,2.4-0.9,2.6-2
	C33.4,8.4,32,9.1,31,10c0.4-0.4,0.7-0.9,0.7-1.4c-3.7,2.4-5.9,7.1-7.6,11.8c-1.4-1.3-2.6-2.4-3.7-3c-3.1-1.6-6.7-3.4-12.5-5.5
	c-0.2,1.9,0.9,4.4,4.2,6.1c-0.7-0.1-2,0.1-3,0.4c0.4,2.2,1.8,4,5.5,4.8c-1.7,0.1-2.5,0.5-3.3,1.3c0.8,1.5,2.6,3.3,6,2.9
	c-3.7,1.6-1.5,4.6,1.5,4.1c-5.2,5.4-13.4,5-18.1,0.5c12.3,16.7,38.9,9.9,42.9-6.2c3,0,4.7-1,5.8-2.2C47.6,24,45.1,23.7,43.8,23.1z"
	/>
</svg>
