<?xml version="1.0" encoding="utf-8"?>
<!-- Generator: Adobe Illustrator 16.0.0, SVG Export Plug-In . SVG Version: 6.00 Build 0)  -->
<!DOCTYPE svg PUBLIC "-//W3C//DTD SVG 1.1//EN" "http://www.w3.org/Graphics/SVG/1.1/DTD/svg11.dtd">
<svg fill="#cacaca" version="1.1" id="Layer_1" xmlns="http://www.w3.org/2000/svg" xmlns:xlink="http://www.w3.org/1999/xlink" x="0px" y="0px"
	 width="64px" height="64px" viewBox="0 0 64 64" enable-background="new 0 0 64 64" xml:space="preserve">
<path d="M28.01,30.064h-4.284v-5.367h4.284v1.118h-3.002v0.967h2.931v1.1h-2.931v1.072h3.002V30.064z M18.463,30.064L16.6,25.858
	v4.207H13.99l-0.493-1.197h-2.67l-0.498,1.197H8.936l2.297-5.367h1.904l2.183,5.082v-5.082h2.094l1.679,3.641l1.541-3.641h2.138
	v5.367h-1.315l-0.005-4.203l-1.86,4.203H18.463z M13.033,27.749l-0.877-2.139l-0.872,2.139H13.033z M33.782,35.703
	c0,1.491-1.112,1.799-2.233,1.799h-1.6v1.8h-2.493l-1.58-1.777l-1.642,1.777h-5.081v-5.368h5.158l1.58,1.759l1.632-1.759h4.098
	C32.639,33.935,33.782,34.217,33.782,35.703z M25.051,36.609l-1.403-1.564h-3.215v0.976h2.815v1.095h-2.815v1.068h3.152
	L25.051,36.609z M28.671,34.511l-1.97,2.116l1.97,2.188V34.511z M32.405,35.703c0-0.47-0.32-0.659-0.784-0.659h-1.672v1.367h1.656
	C32.099,36.412,32.405,36.167,32.405,35.703z M30.184,30.064h-1.284v-5.367h2.95c0.655,0,1.139,0.017,1.554,0.257
	c0.405,0.24,0.649,0.59,0.649,1.189c0,0.855-0.571,1.298-0.904,1.43c0.281,0.107,0.52,0.296,0.634,0.452
	c0.182,0.267,0.213,0.505,0.213,0.984v1.055h-1.294l-0.006-0.677c0-0.323,0.031-0.787-0.202-1.045
	c-0.187-0.188-0.473-0.229-0.935-0.229h-1.375V30.064z M30.182,27.007h1.559c0.249,0,0.457-0.003,0.635-0.11
	c0.165-0.087,0.264-0.276,0.264-0.51c0-0.23-0.103-0.396-0.269-0.474c-0.152-0.086-0.386-0.097-0.608-0.097h-1.58V27.007z
	 M36.104,24.698h-1.309v5.367h1.309V24.698z M37.42,29.471c-0.452-0.456-0.688-1.074-0.688-2.049c0-0.796,0.141-1.524,0.692-2.099
	c0.413-0.428,1.064-0.625,1.948-0.625h1.241v1.15h-1.215c-0.47,0-0.734,0.07-0.988,0.318c-0.218,0.226-0.368,0.652-0.368,1.216
	c0,0.574,0.113,0.989,0.353,1.259c0.197,0.213,0.558,0.277,0.893,0.277h0.576l1.811-4.22h1.921l2.171,5.076v-5.076h1.954
	l2.255,3.738v-3.738h1.313v5.367h-1.817l-2.433-4.028v4.028h-2.611l-0.5-1.197h-2.665l-0.482,1.197h-1.502
	C38.655,30.064,37.866,29.926,37.42,29.471z M41.722,27.749h1.77l-0.888-2.139L41.722,27.749z M39.03,26.8
	c-0.012,0.017-0.102,0.21-0.102,0.582c0,0.368,0.059,0.545,0.101,0.625c0.045,0.012,0.128,0.026,0.252,0.026l0.556-1.299h-0.438
	C39.098,26.733,39.066,26.765,39.03,26.8z M60.24,15.152v33.695c0,0.803-0.65,1.454-1.454,1.454H5.214
	c-0.804,0-1.454-0.651-1.454-1.454V15.152c0-0.803,0.65-1.454,1.454-1.454h53.572C59.59,13.698,60.24,14.349,60.24,15.152z
	 M18.463,30.951h1.127c0.352,0,0.668-0.207,0.81-0.528l0.17-0.38v0.022c0,0.489,0.396,0.885,0.886,0.885h1.315
	c0.18,0,0.337-0.068,0.478-0.159c0.14,0.091,0.297,0.159,0.478,0.159h4.284c0.166,0,0.313-0.058,0.444-0.137
	c0.134,0.079,0.279,0.137,0.445,0.137h1.284c0.489,0,0.886-0.397,0.886-0.886v-1.066h0.489c0.111,0,0.19,0.003,0.249,0.007
	c0.006,0.091,0.004,0.199,0.004,0.271l-0.002,0.118l0.005,0.677c0.004,0.486,0.4,0.879,0.887,0.879h1.294
	c0.147,0,0.278-0.044,0.399-0.107c0.123,0.063,0.255,0.107,0.401,0.107h1.309c0.429,0,0.769-0.31,0.852-0.714
	c0.729,0.611,1.751,0.714,2.322,0.714h1.502c0.359,0,0.685-0.22,0.819-0.555l0.262-0.643h1.477l0.271,0.652
	c0.139,0.33,0.46,0.545,0.818,0.545h2.611c0.489,0,0.886-0.397,0.886-0.886v-0.847l0.787,1.305c0.161,0.266,0.448,0.428,0.76,0.428
	h1.817c0.489,0,0.886-0.397,0.886-0.886v-5.367c0-0.489-0.396-0.886-0.886-0.886h-1.313c-0.49,0-0.887,0.397-0.887,0.886v0.554
	l-0.61-1.011c-0.161-0.266-0.448-0.428-0.758-0.428h-1.954c-0.489,0-0.886,0.397-0.886,0.886v0.753l-0.471-1.102
	c-0.14-0.325-0.46-0.537-0.814-0.537h-1.921c-0.196,0-0.381,0.064-0.53,0.176c-0.148-0.111-0.332-0.176-0.53-0.176h-1.241
	c-1.052,0-1.834,0.256-2.408,0.753c-0.066-0.423-0.417-0.753-0.86-0.753h-1.309c-0.349,0-0.644,0.207-0.789,0.499
	c-0.055-0.04-0.099-0.087-0.16-0.124c-0.603-0.348-1.234-0.375-1.997-0.375h-2.95c-0.166,0-0.312,0.058-0.445,0.137
	c-0.131-0.079-0.278-0.137-0.444-0.137h-4.284c-0.181,0-0.338,0.067-0.478,0.159c-0.141-0.092-0.298-0.159-0.478-0.159h-2.138
	c-0.354,0-0.676,0.213-0.814,0.541l-0.762,1.796l-0.839-1.822c-0.146-0.313-0.461-0.515-0.805-0.515h-2.094
	c-0.49,0-0.886,0.397-0.886,0.886v0.772l-0.481-1.122c-0.141-0.325-0.46-0.536-0.815-0.536h-1.904c-0.355,0-0.676,0.212-0.815,0.537
	l-2.296,5.367c-0.118,0.273-0.089,0.587,0.074,0.837c0.164,0.248,0.442,0.398,0.74,0.398h1.394c0.356,0,0.68-0.216,0.816-0.546
	l0.271-0.652h1.486l0.267,0.648c0.137,0.332,0.46,0.549,0.82,0.549H16.6c0.489,0,0.886-0.397,0.886-0.886v-0.021l0.168,0.381
	C17.795,30.744,18.113,30.951,18.463,30.951z M55.95,37.608c0-0.75-0.2-1.307-0.639-1.759c-0.009-0.009-0.019-0.018-0.027-0.027
	c0.245-0.158,0.406-0.433,0.406-0.746v-1.142c0-0.489-0.396-0.886-0.886-0.886h-2.571c-0.801,0-1.403,0.235-1.843,0.592
	c-0.123-0.343-0.441-0.592-0.827-0.592h-2.571c-0.706,0-1.265,0.176-1.688,0.462c-0.152-0.272-0.431-0.462-0.763-0.462h-4.281
	c-0.346,0-0.635,0.202-0.782,0.489c-0.061-0.042-0.105-0.092-0.171-0.132c-0.62-0.331-1.28-0.357-1.961-0.357h-2.962
	c-0.347,0-0.639,0.203-0.784,0.493c-0.45-0.294-1.081-0.493-1.979-0.493h-4.098c-0.247,0-0.482,0.102-0.65,0.283l-0.971,1.048
	l-0.932-1.037c-0.167-0.188-0.406-0.294-0.659-0.294h-5.158c-0.489,0-0.886,0.396-0.886,0.886v5.368
	c0,0.489,0.396,0.886,0.886,0.886h5.081c0.247,0,0.482-0.104,0.65-0.285l0.979-1.059l0.929,1.046
	c0.168,0.189,0.41,0.297,0.663,0.297h2.493c0.49,0,0.887-0.397,0.887-0.886v-0.915h0.713c0.866,0,1.494-0.178,1.949-0.449v1.364
	c0,0.489,0.396,0.886,0.887,0.886h1.289c0.489,0,0.886-0.397,0.886-0.886v-1.075h0.484c0.118,0,0.201,0.003,0.26,0.008
	c0.005,0.094,0.005,0.21,0.003,0.286v0.781c0,0.489,0.396,0.886,0.887,0.886h1.287c0.142,0,0.271-0.041,0.39-0.1
	c0.119,0.06,0.249,0.1,0.391,0.1h4.281c0.139,0,0.267-0.039,0.384-0.096c0.118,0.057,0.244,0.096,0.385,0.096h2.498
	c0.796,0,1.441-0.195,1.928-0.54c0.135,0.317,0.448,0.54,0.815,0.54h2.498C54.867,40.188,55.95,39.224,55.95,37.608z M47.975,36.04
	l-0.69-0.019c-0.218,0-0.363-0.014-0.5-0.061c-0.161-0.06-0.28-0.197-0.28-0.4c0-0.17,0.052-0.299,0.194-0.387
	c0.128-0.087,0.28-0.097,0.514-0.097h2.352v-1.142h-2.571c-1.345,0-1.834,0.819-1.834,1.598c0,1.698,1.503,1.621,2.702,1.661
	c0.224,0,0.358,0.037,0.457,0.119c0.089,0.075,0.156,0.198,0.156,0.355c0,0.146-0.063,0.267-0.151,0.35
	c-0.108,0.101-0.281,0.133-0.523,0.133h-2.488v1.151h2.498c1.293,0,2.015-0.539,2.015-1.694c0-0.552-0.134-0.879-0.385-1.137
	C49.149,36.177,48.671,36.057,47.975,36.04z M38.64,36.808c0.285,0.104,0.519,0.294,0.628,0.451
	c0.182,0.262,0.208,0.506,0.213,0.979v1.064h-1.287v-0.671c0-0.324,0.031-0.801-0.208-1.051c-0.187-0.192-0.473-0.238-0.941-0.238
	h-1.37v1.96h-1.289v-5.368h2.962c0.649,0,1.121,0.028,1.544,0.253c0.404,0.244,0.659,0.58,0.659,1.192
	C39.55,36.237,38.977,36.674,38.64,36.808z M38.131,35.625c0-0.229-0.099-0.396-0.265-0.483c-0.156-0.092-0.385-0.097-0.612-0.097
	h-1.58v1.206h1.559c0.249,0,0.462-0.009,0.634-0.111C38.032,36.04,38.131,35.854,38.131,35.625z M40.261,39.302h4.281v-1.114
	l-3.004-0.005v-1.068h2.93v-1.095h-2.93v-0.976h3.004v-1.11h-4.281V39.302z M53.216,36.04l-0.69-0.019
	c-0.218,0-0.363-0.014-0.5-0.061c-0.16-0.06-0.28-0.197-0.28-0.4c0-0.17,0.052-0.299,0.194-0.387
	c0.128-0.087,0.28-0.097,0.514-0.097h2.352v-1.142h-2.571c-1.345,0-1.834,0.819-1.834,1.598c0,1.698,1.503,1.621,2.702,1.661
	c0.224,0,0.358,0.037,0.457,0.119c0.089,0.075,0.156,0.198,0.156,0.355c0,0.146-0.063,0.267-0.15,0.35
	c-0.109,0.101-0.282,0.133-0.524,0.133h-2.488v1.151h2.498c1.293,0,2.015-0.539,2.015-1.694c0-0.552-0.134-0.879-0.385-1.137
	C54.391,36.177,53.912,36.057,53.216,36.04z"/>
</svg>
