<?xml version="1.0" encoding="utf-8"?>
<!-- Generator: Adobe Illustrator 16.0.0, SVG Export Plug-In . SVG Version: 6.00 Build 0)  -->
<!DOCTYPE svg PUBLIC "-//W3C//DTD SVG 1.1//EN" "http://www.w3.org/Graphics/SVG/1.1/DTD/svg11.dtd">
<svg fill="#cacaca" version="1.1" id="Layer_1" xmlns="http://www.w3.org/2000/svg" xmlns:xlink="http://www.w3.org/1999/xlink" x="0px" y="0px"
	 width="64px" height="64px" viewBox="0 0 64 64" enable-background="new 0 0 64 64" xml:space="preserve">
<path d="M14.69,28.81c0.449,0.399,0.719,1.018,0.719,1.654c0,0.638-0.27,1.275-0.719,1.674c-0.406,0.367-0.936,0.528-1.771,0.528
	h-0.348v-4.394h0.348C13.755,28.272,14.263,28.423,14.69,28.81z M52.292,27.524c0-0.232,0.18-0.418,0.404-0.418
	c0.223,0,0.404,0.189,0.404,0.418c0,0.229-0.182,0.417-0.404,0.417S52.292,27.756,52.292,27.524z M52.483,27.816h0.139V27.59
	l0.164,0.227h0.17l-0.191-0.24c0.082-0.022,0.127-0.082,0.127-0.163c0-0.117-0.08-0.181-0.221-0.181h-0.188V27.816z M60.24,15.152
	v33.695c0,0.803-0.65,1.454-1.454,1.454H5.214c-0.804,0-1.454-0.651-1.454-1.454V15.152c0-0.803,0.65-1.454,1.454-1.454h53.572
	C59.59,13.698,60.24,14.349,60.24,15.152z M52.19,27.523c0,0.282,0.227,0.509,0.51,0.509c0.275,0,0.502-0.229,0.502-0.509
	c0-0.278-0.227-0.509-0.502-0.509C52.415,27.015,52.19,27.24,52.19,27.523z M47.849,33.791h1.295v-2.67h0.168l1.793,2.67H52.7
	l-2.092-2.799c0.975-0.199,1.514-0.866,1.514-1.884c0-1.244-0.857-1.962-2.352-1.962h-1.922V33.791z M43.315,33.791h3.674v-1.125
	H44.61v-1.794h2.293v-1.125H44.61v-1.475h2.379v-1.126h-3.674V33.791z M36.343,27.146l2.82,6.814h0.695l2.871-6.814h-1.404
	l-1.795,4.463l-1.771-4.463H36.343z M29.679,30.493c0,1.951,1.582,3.534,3.533,3.534c1.586,0,2.93-1.045,3.375-2.484
	c0.02-0.061,0.033-0.123,0.049-0.184c0.012-0.052,0.029-0.103,0.039-0.154c0.047-0.23,0.072-0.469,0.072-0.714
	c0-1.951-1.582-3.533-3.535-3.533c-1.463,0-2.721,0.89-3.256,2.159C29.776,29.54,29.679,30.005,29.679,30.493z M24.124,30.474
	c0,1.952,1.533,3.467,3.506,3.467c0.559,0,1.037-0.109,1.625-0.388v-1.525c-0.518,0.519-0.977,0.729-1.564,0.729
	c-1.305,0-2.23-0.947-2.23-2.292c0-1.275,0.955-2.282,2.17-2.282c0.619,0,1.088,0.221,1.625,0.748v-1.524
	c-0.568-0.289-1.037-0.408-1.594-0.408C25.698,26.997,24.124,28.542,24.124,30.474z M16.743,30.474c0-1.961-1.465-3.327-3.566-3.327
	h-1.9v6.645h1.893c1.004,0,1.73-0.238,2.369-0.768C16.296,32.396,16.743,31.451,16.743,30.474z M18.636,27.146h-1.295v6.645h1.295
	V27.146z M23.716,31.769c0-1.055-0.438-1.533-1.91-2.072c-0.779-0.287-1.008-0.478-1.008-0.836c0-0.419,0.408-0.737,0.967-0.737
	c0.387,0,0.707,0.16,1.045,0.539l0.678-0.889c-0.559-0.487-1.225-0.736-1.953-0.736c-1.176,0-2.07,0.816-2.07,1.903
	c0,0.915,0.416,1.384,1.633,1.822c0.508,0.179,0.766,0.298,0.896,0.378c0.26,0.169,0.389,0.409,0.389,0.688
	c0,0.538-0.428,0.938-1.006,0.938c-0.617,0-1.117-0.31-1.414-0.887l-0.838,0.807c0.598,0.876,1.314,1.265,2.299,1.265
	C22.771,33.95,23.716,33.055,23.716,31.769z M59.224,36.569c0,0-12.455,8.789-35.268,12.723h35.268V36.569z M50.788,29.178
	c0-0.646-0.439-0.984-1.246-0.984h-0.398v2.012h0.377C50.349,30.205,50.788,29.846,50.788,29.178z M52.753,27.415
	c0-0.05-0.035-0.075-0.105-0.075h-0.025v0.152h0.023C52.716,27.492,52.753,27.467,52.753,27.415z"/>
</svg>
