<?xml version="1.0" encoding="utf-8"?>
<!-- Generator: Adobe Illustrator 16.0.0, SVG Export Plug-In . SVG Version: 6.00 Build 0)  -->
<!DOCTYPE svg PUBLIC "-//W3C//DTD SVG 1.1//EN" "http://www.w3.org/Graphics/SVG/1.1/DTD/svg11.dtd">
<svg fill="#cacaca" version="1.1" id="Layer_1" xmlns="http://www.w3.org/2000/svg" xmlns:xlink="http://www.w3.org/1999/xlink" x="0px" y="0px"
	 width="64px" height="64px" viewBox="0 0 64 64" enable-background="new 0 0 64 64" xml:space="preserve">
<path d="M18.811,29.572c-1.058,0-1.869,0.34-1.869,0.34l-0.224,1.33c0,0,0.669-0.272,1.682-0.272c0.575,0,0.995,0.064,0.995,0.531
	c0,0.284-0.051,0.389-0.051,0.389s-0.453-0.038-0.663-0.038c-1.335,0-2.737,0.569-2.737,2.287c0,1.354,0.919,1.664,1.49,1.664
	c1.089,0,1.559-0.707,1.583-0.708l-0.051,0.59h1.359l0.606-4.25C20.93,29.63,19.357,29.572,18.811,29.572z M18.049,34.509
	c-0.479,0-0.604-0.366-0.604-0.583c0-0.422,0.229-0.93,1.36-0.93c0.264,0.001,0.292,0.029,0.336,0.036
	C19.171,33.292,18.979,34.509,18.049,34.509z M22.87,31.5c0,0.771,1.839,0.392,1.839,2.309c0,2.051-1.987,1.962-2.334,1.962
	c-1.295,0-1.695-0.178-1.732-0.189l0.206-1.35c0.002-0.011,0.65,0.236,1.371,0.236c0.416,0,0.956-0.041,0.956-0.538
	c0-0.745-1.932-0.566-1.932-2.334c0-1.559,1.158-2.015,2.3-2.015c0.882,0,1.424,0.121,1.424,0.121l-0.195,1.362
	c0,0-0.837-0.069-1.054-0.069C23.169,30.997,22.87,31.117,22.87,31.5z M26.533,33.848c-0.034,0.212,0.025,0.498,0.562,0.498
	c0.137,0,0.292-0.045,0.398-0.045l-0.193,1.312c-0.155,0.042-0.594,0.198-1.157,0.202c-0.719,0.007-1.23-0.397-1.23-1.307
	c0-0.613,0.877-5.655,0.911-5.688h1.543L27.21,29.72h0.77l-0.197,1.452h-0.817L26.533,33.848z M32.487,33.211
	c0,0,0.203-1,0.203-1.407c0-1.017-0.506-2.257-2.2-2.257c-1.552,0.001-2.701,1.673-2.701,3.563c0,2.181,1.439,2.699,2.666,2.699
	c1.132,0,1.63-0.253,1.63-0.253l0.272-1.489c0,0-0.861,0.38-1.639,0.38c-1.657,0-1.367-1.236-1.367-1.236H32.487z M30.495,30.93
	c0.871,0,0.71,0.979,0.71,1.058h-1.713C29.492,31.887,29.654,30.93,30.495,30.93z M16.497,28.343l-1.217,7.35H13.7l0.879-5.541
	l-1.983,5.541h-1.063l-0.138-5.541l-0.939,5.541H8.967l1.234-7.35h2.252l0.079,4.51l1.521-4.51H16.497z M36.019,27.374h-8.013
	c0.079-0.15,0.359-0.754,0.781-1.553h6.607C35.631,26.323,35.839,26.841,36.019,27.374z M31.996,21.249 M34.559,24.298h-4.913
	c0.315-0.52,0.663-1.052,1.033-1.552h2.755C33.841,23.238,34.218,23.756,34.559,24.298z M31.995,42.75
	c-0.537-0.486-1.023-1.023-1.482-1.584h2.993c-0.452,0.553-0.944,1.072-1.472,1.552h-0.003c0,0.001,0.001,0.001,0.001,0.001
	C32.02,42.73,32.007,42.739,31.995,42.75z M34.577,39.672h-5.143c-0.313-0.5-0.605-1.013-0.856-1.552h6.843
	C35.17,38.656,34.888,39.174,34.577,39.672z M36.411,29.664c-0.205,0.418-0.386,0.801-0.574,1.79
	c-1.072-0.379-1.155,1.695-1.604,4.25h-1.585l0.963-5.982h1.437l-0.138,0.867c0,0,0.512-0.943,1.203-0.943
	C36.315,29.644,36.411,29.664,36.411,29.664z M39.267,34.308c0.52,0,1.277-0.379,1.277-0.379l-0.276,1.683
	c0,0-0.83,0.211-1.35,0.211c-1.842,0-2.778-1.271-2.778-3.196c0-2.903,1.734-4.449,3.515-4.449c0.803,0,1.738,0.378,1.738,0.378
	l-0.252,1.635c0,0-0.631-0.441-1.417-0.441c-1.049,0-1.991,1.002-1.991,2.824C37.733,33.472,38.172,34.308,39.267,34.308z
	 M54.334,34.841c-0.075,0.04-0.133,0.098-0.175,0.173c-0.042,0.076-0.063,0.154-0.063,0.235c0,0.081,0.021,0.158,0.063,0.233
	c0.041,0.074,0.099,0.132,0.173,0.174c0.075,0.041,0.152,0.062,0.233,0.062s0.159-0.021,0.233-0.062
	c0.074-0.042,0.132-0.1,0.173-0.174c0.042-0.075,0.062-0.152,0.062-0.233c0-0.082-0.02-0.16-0.062-0.235
	c-0.042-0.075-0.101-0.133-0.176-0.173c-0.074-0.041-0.151-0.061-0.23-0.061C54.487,34.78,54.41,34.8,54.334,34.841z M54.903,35.053
	c0.035,0.063,0.053,0.128,0.053,0.195c0,0.068-0.017,0.133-0.051,0.195c-0.035,0.061-0.083,0.109-0.145,0.145
	c-0.062,0.034-0.126,0.052-0.194,0.052s-0.132-0.018-0.194-0.052c-0.063-0.035-0.11-0.083-0.146-0.145
	c-0.034-0.063-0.051-0.127-0.051-0.195c0-0.067,0.017-0.132,0.053-0.195c0.035-0.063,0.083-0.111,0.146-0.145
	c0.063-0.034,0.127-0.05,0.192-0.05c0.066,0,0.129,0.017,0.191,0.05C54.82,34.942,54.868,34.989,54.903,35.053z M48.636,33.276
	c0,1.265,0.629,2.504,1.914,2.504c0.924,0,1.437-0.644,1.437-0.644l-0.068,0.55h1.501l1.179-7.339l-1.547,0.003l-0.333,2.065
	c0,0-0.581-0.803-1.49-0.803C49.814,29.613,48.636,31.318,48.636,33.276z M52.335,32.377c0,0.815-0.404,1.904-1.24,1.904
	c-0.555,0-0.816-0.466-0.816-1.198c0-1.197,0.538-1.986,1.216-1.986C52.05,31.098,52.335,31.479,52.335,32.377z M54.846,40.107
	c-0.011-0.011-0.025-0.021-0.043-0.027c0.043-0.003,0.079-0.019,0.105-0.046s0.039-0.059,0.039-0.096
	c0-0.026-0.008-0.05-0.023-0.074c-0.016-0.023-0.038-0.04-0.064-0.049c-0.026-0.01-0.069-0.014-0.128-0.014h-0.174v0.504h0h0.082
	v-0.214h0.048c0.028,0,0.05,0.006,0.064,0.017c0.022,0.017,0.051,0.056,0.086,0.118l0.044,0.08h0.1l-0.061-0.099
	C54.89,40.16,54.866,40.127,54.846,40.107z M54.738,40.022h-0.099V39.87h0.093c0.039,0,0.066,0.003,0.081,0.009
	c0.015,0.006,0.026,0.015,0.034,0.026c0.008,0.012,0.013,0.025,0.013,0.04c0,0.023-0.009,0.042-0.026,0.056
	C54.817,40.015,54.785,40.022,54.738,40.022z M58.786,13.698H5.214c-0.804,0-1.454,0.651-1.454,1.454v33.695
	c0,0.803,0.65,1.454,1.454,1.454h53.572c0.804,0,1.454-0.651,1.454-1.454V15.152C60.24,14.349,59.59,13.698,58.786,13.698z
	 M55.169,40.279c-0.042,0.075-0.099,0.133-0.173,0.174c-0.074,0.041-0.152,0.062-0.233,0.062s-0.159-0.021-0.233-0.062
	c-0.074-0.041-0.132-0.099-0.174-0.174c-0.041-0.074-0.062-0.152-0.062-0.233s0.021-0.159,0.063-0.234
	c0.042-0.076,0.101-0.133,0.175-0.174c0.076-0.04,0.152-0.06,0.231-0.06c0.08,0,0.156,0.021,0.23,0.06
	c0.075,0.041,0.134,0.098,0.175,0.174c0.042,0.075,0.063,0.154,0.063,0.234S55.211,40.206,55.169,40.279z M56.217,32
	c0.002,8.005-6.485,14.497-14.491,14.499c-3.744,0.001-7.158-1.418-9.73-3.749c-2.572,2.327-5.979,3.745-9.717,3.745
	c-8.001,0-14.495-6.493-14.495-14.495c0-7.97,6.443-14.444,14.402-14.496c0.031,0,0.062,0,0.093,0c3.738,0,7.146,1.418,9.718,3.745
	c2.571-2.328,5.981-3.747,9.722-3.748c8.006-0.003,14.497,6.486,14.499,14.492C56.217,31.995,56.217,31.997,56.217,32z
	 M54.36,35.003v0.504h0.082v-0.214h0.047c0.029,0,0.051,0.006,0.066,0.017c0.021,0.017,0.049,0.055,0.085,0.119l0.044,0.079h0.1
	l-0.062-0.099c-0.029-0.047-0.054-0.08-0.074-0.099c-0.011-0.011-0.025-0.02-0.043-0.027c0.044-0.003,0.078-0.018,0.104-0.045
	s0.04-0.06,0.04-0.096c0-0.026-0.008-0.051-0.024-0.074c-0.016-0.023-0.037-0.04-0.063-0.049c-0.026-0.01-0.069-0.015-0.128-0.015
	H54.36z M54.651,35.107c0.008,0.012,0.012,0.024,0.012,0.04c0,0.023-0.009,0.042-0.025,0.055c-0.018,0.015-0.049,0.021-0.096,0.021
	h-0.099v-0.152h0.092c0.04,0,0.066,0.003,0.082,0.008C54.631,35.086,54.643,35.094,54.651,35.107z M43.829,29.572
	c-1.059,0-1.87,0.34-1.87,0.34l-0.224,1.33c0,0,0.669-0.272,1.681-0.272c0.575,0,0.996,0.064,0.996,0.531
	c0,0.284-0.052,0.389-0.052,0.389s-0.453-0.038-0.664-0.038c-1.334,0-2.736,0.569-2.736,2.287c0,1.354,0.92,1.664,1.49,1.664
	c1.088,0,1.558-0.707,1.583-0.708l-0.051,0.59c0,0,1.359,0,1.359,0l0.606-4.25C45.949,29.63,44.375,29.572,43.829,29.572z
	 M43.068,34.509c-0.48,0-0.604-0.366-0.604-0.583c0-0.422,0.23-0.93,1.36-0.93c0.263,0.001,0.291,0.029,0.336,0.036
	C44.189,33.292,43.997,34.509,43.068,34.509z M48.794,31.453c-1.071-0.379-1.154,1.695-1.604,4.25h-1.585l0.963-5.982h1.438
	l-0.138,0.867c0,0,0.513-0.943,1.204-0.943c0.201,0,0.297,0.02,0.297,0.02C49.165,30.082,48.982,30.465,48.794,31.453z"/>
</svg>
