<?xml version="1.0" encoding="utf-8"?>
<!-- Generator: Adobe Illustrator 16.0.0, SVG Export Plug-In . SVG Version: 6.00 Build 0)  -->
<!DOCTYPE svg PUBLIC "-//W3C//DTD SVG 1.1//EN" "http://www.w3.org/Graphics/SVG/1.1/DTD/svg11.dtd">
<svg fill="#cacaca" version="1.1" id="Layer_1" xmlns="http://www.w3.org/2000/svg" xmlns:xlink="http://www.w3.org/1999/xlink" x="0px" y="0px"
	 width="64px" height="64px" viewBox="0 0 64 64" enable-background="new 0 0 64 64" xml:space="preserve">
<path d="M37.132,28.647c0.228,0.15,0.337,0.385,0.342,0.697c0.002,0.478-0.175,0.843-0.526,1.104
	c-0.354,0.254-0.845,0.384-1.478,0.384h-0.291c-0.252,0.002-0.416-0.202-0.358-0.446l0.354-1.519
	c0.051-0.243,0.308-0.447,0.56-0.445l0.38-0.002C36.564,28.422,36.901,28.497,37.132,28.647z M21.265,32.22
	c-0.3,0.042-0.56,0.102-0.771,0.174l-0.496,0.337c-0.116,0.146-0.171,0.333-0.171,0.572l0.226,0.438
	c0.153,0.086,0.379,0.128,0.667,0.128c0.19,0,0.396-0.046,0.612-0.133l0.46-0.238l0.182-0.242c0.072-0.283,0.221-0.91,0.238-0.988
	l-0.081-0.143C22.062,32.126,21.533,32.187,21.265,32.22z M42.527,32.226c-0.303,0.043-0.562,0.101-0.771,0.173
	c-0.214,0.084-0.388,0.198-0.501,0.338c-0.112,0.146-0.168,0.333-0.168,0.572l0.229,0.437c0.147,0.087,0.37,0.129,0.666,0.129
	c0.187,0,0.393-0.046,0.609-0.133l0.457-0.237l0.189-0.243c0.069-0.285,0.221-0.91,0.233-0.988l-0.081-0.144
	C43.319,32.13,42.792,32.192,42.527,32.226z M14.863,28.394l-0.383,0.002c-0.251-0.002-0.508,0.2-0.557,0.444L13.57,30.36
	c-0.055,0.246,0.102,0.447,0.356,0.447h0.286c0.635,0,1.127-0.129,1.48-0.389c0.353-0.258,0.534-0.625,0.526-1.1
	c0.002-0.313-0.111-0.549-0.337-0.698C15.652,28.471,15.311,28.394,14.863,28.394z M60.24,15.152v33.695
	c0,0.803-0.65,1.454-1.454,1.454H5.214c-0.804,0-1.454-0.651-1.454-1.454V15.152c0-0.803,0.65-1.454,1.454-1.454h53.572
	C59.59,13.698,60.24,14.349,60.24,15.152z M18.441,29.133c0-0.42-0.069-0.773-0.225-1.055c-0.14-0.282-0.363-0.515-0.639-0.689
	c-0.288-0.176-0.628-0.3-1.018-0.374c-0.396-0.072-0.853-0.104-1.381-0.109l-2.444,0.001c-0.254,0.004-0.503,0.201-0.563,0.447
	l-1.645,7.163c-0.06,0.243,0.099,0.446,0.353,0.446h1.17c0.254,0,0.505-0.198,0.562-0.446l0.402-1.739
	c0.053-0.242,0.304-0.444,0.561-0.444h0.334c1.432-0.002,2.54-0.294,3.336-0.88C18.046,30.868,18.441,30.093,18.441,29.133z
	 M24.527,30.259c0.002-0.521-0.224-0.909-0.667-1.157c-0.441-0.249-1.139-0.373-2.092-0.373c-0.471,0-0.941,0.037-1.416,0.11
	c-0.351,0.054-0.385,0.063-0.6,0.111c-0.445,0.097-0.515,0.542-0.515,0.542l-0.143,0.589c-0.081,0.376,0.136,0.361,0.226,0.33
	c0.194-0.058,0.303-0.117,0.7-0.207c0.379-0.086,0.779-0.151,1.097-0.147c0.468,0,0.826,0.05,1.064,0.15
	c0.235,0.103,0.353,0.278,0.353,0.532l-0.021,0.165l-0.168,0.104c-0.665,0.042-1.145,0.103-1.727,0.187
	c-0.57,0.079-1.069,0.219-1.484,0.408c-0.446,0.196-0.776,0.459-1.007,0.794c-0.223,0.338-0.334,0.745-0.334,1.224
	c0,0.452,0.162,0.822,0.476,1.11c0.316,0.283,0.734,0.421,1.233,0.421c0.316-0.001,0.561-0.026,0.735-0.068l0.566-0.194l0.48-0.268
	l0.441-0.291l0.006,0.007l-0.044,0.188l-0.002,0.007v0.002c-0.048,0.228,0.09,0.417,0.313,0.438l0.004,0.005h0.021h0.898h0.169
	l0.016-0.006c0.233-0.028,0.453-0.216,0.503-0.438l0.854-3.692l0.044-0.301L24.527,30.259z M27.119,37.371l4.664-7.887
	c0,0,0.448-0.674,0.032-0.668c-0.277,0.003-1.404,0-1.404,0c-0.252,0-0.576,0.205-0.736,0.447c0,0-1.676,2.876-1.839,3.165
	l-0.194-0.002l-0.522-3.143c-0.058-0.248-0.316-0.459-0.637-0.459l-1.049,0.002c-0.252,0-0.408,0.201-0.35,0.446
	c0,0,0.796,4.532,0.956,5.598c0.074,0.59-0.009,0.694-0.009,0.694l-1.037,1.807c-0.154,0.246-0.071,0.446,0.181,0.446l1.212-0.001
	C26.637,37.816,26.969,37.617,27.119,37.371z M39.695,29.159c-0.002-0.42-0.075-0.774-0.224-1.054
	c-0.146-0.284-0.365-0.513-0.644-0.692c-0.284-0.177-0.624-0.301-1.018-0.373c-0.388-0.069-0.85-0.106-1.376-0.108l-2.447,0.002
	c-0.254,0.004-0.5,0.202-0.559,0.445l-1.646,7.167c-0.06,0.243,0.104,0.445,0.353,0.444l1.172-0.002
	c0.249,0.002,0.505-0.198,0.563-0.441l0.396-1.741c0.058-0.243,0.31-0.447,0.563-0.443h0.334c1.432,0,2.545-0.295,3.344-0.879
	C39.295,30.892,39.695,30.119,39.695,29.159z M45.789,30.263c0-0.521-0.223-0.907-0.669-1.155c-0.445-0.249-1.141-0.375-2.091-0.375
	c-0.471,0-0.944,0.037-1.415,0.113c-0.351,0.051-0.386,0.062-0.603,0.109c-0.446,0.096-0.513,0.542-0.513,0.542l-0.143,0.588
	c-0.08,0.376,0.132,0.359,0.229,0.33c0.194-0.058,0.3-0.115,0.695-0.207c0.378-0.085,0.78-0.149,1.099-0.147
	c0.466,0,0.824,0.05,1.062,0.151c0.238,0.102,0.353,0.279,0.353,0.531l-0.018,0.165l-0.168,0.106
	c-0.67,0.041-1.15,0.102-1.727,0.186c-0.567,0.08-1.07,0.218-1.487,0.408c-0.443,0.197-0.778,0.46-1.006,0.795
	c-0.224,0.336-0.335,0.744-0.335,1.221c0,0.454,0.163,0.825,0.479,1.111c0.319,0.282,0.733,0.423,1.232,0.423
	c0.314-0.004,0.559-0.024,0.734-0.069l0.566-0.192l0.483-0.266l0.438-0.295l0.007,0.009l-0.039,0.188l-0.005,0.004l0.002,0.003
	c-0.054,0.228,0.085,0.417,0.312,0.438l0.002,0.005h0.021v0c0.147,0,0.658,0,0.9,0h0.167l0.016-0.006
	c0.231-0.028,0.451-0.216,0.499-0.44l0.856-3.689l0.043-0.303L45.789,30.263z M49.509,27.436c0.053-0.244-0.099-0.443-0.354-0.443
	h-1.048c-0.215,0-0.409,0.159-0.503,0.355l-0.059,0.091l-0.052,0.232l-1.466,6.662l-0.047,0.205l0.002,0.005
	c-0.049,0.218,0.086,0.385,0.294,0.417l0.019,0.025h1.088c0.214,0,0.413-0.162,0.505-0.362l0.056-0.084l1.567-7.101L49.509,27.436z
	 M51.59,26.508h-0.392v-0.325h-0.193v0.325h-0.132v0.162h0.132v0.606l0.091,0.3l0.265,0.095l0.112-0.009l0.117-0.023v-0.171h-0.009
	l-0.073,0.022l-0.098,0.014l-0.12-0.019l-0.062-0.06l-0.027-0.094l-0.003-0.14v-0.521h0.392V26.508z M53.486,26.909l-0.09-0.318
	l-0.277-0.113l-0.205,0.042l-0.21,0.141l-0.122-0.136l-0.198-0.047l-0.189,0.042l-0.181,0.116v-0.126h-0.189v1.139h0.189v-0.85
	l0.159-0.099l0.157-0.039l0.129,0.023l0.064,0.065l0.028,0.109l0.008,0.141v0.65h0.19v-0.729l-0.002-0.061l-0.003-0.056l0.163-0.103
	l0.159-0.041l0.127,0.023l0.067,0.065l0.025,0.11l0.012,0.139v0.65h0.189V26.909z"/>
</svg>
