<?xml version="1.0" encoding="utf-8"?>
<!-- Generator: Adobe Illustrator 16.0.4, SVG Export Plug-In . SVG Version: 6.00 Build 0)  -->
<!DOCTYPE svg PUBLIC "-//W3C//DTD SVG 1.1//EN" "http://www.w3.org/Graphics/SVG/1.1/DTD/svg11.dtd">
<svg fill="#cacaca" version="1.1" id="Layer_1" xmlns="http://www.w3.org/2000/svg" xmlns:xlink="http://www.w3.org/1999/xlink" x="0px" y="0px"
	 width="112px" height="79.333px" viewBox="0 0 112 79.333" enable-background="new 0 0 112 79.333" xml:space="preserve">
<path d="M90.852,33.805L93.1,45.042h-6.543L90.852,33.805z M112,9.31v60.712c0,5.143-4.168,9.311-9.311,9.311H9.311
	C4.167,79.333,0,75.165,0,70.022V9.31C0,4.167,4.167,0,9.311,0h93.379C107.832,0,112,4.167,112,9.31z M25.262,41.713l-2.66-13.49
	c0,0-1.199-2.926-4.322-2.926c-3.121,0-12.207,0-12.207,0S21.635,30.048,25.262,41.713z M29.867,54.967l12.007-29.74h-8.447
	l-7.224,21.177c0,0-0.415-1.801-0.588-2.922C21.504,34.268,14.83,30.889,14.83,30.889l6.337,24.079H29.867L29.867,54.967z
	 M52.98,25.231h-7.984l-4.682,29.734h7.888L52.98,25.231z M75.109,45.229c0-7.566-10.947-8.111-10.947-11.486
	c0-1.727,1.367-3.01,5.292-3.01c2.553,0,5.474,1.924,5.474,1.924l1.279-6.572c0,0-3.738-1.461-7.393-1.461
	c-8.303,0-12.586,4.107-12.586,9.301c0,9.394,10.942,8.111,10.942,12.941c0,0.822-0.64,2.734-5.192,2.734
	c-4.564,0-7.576-1.734-7.576-1.734l-1.361,6.299c0,0,2.921,1.732,8.578,1.732C67.275,55.897,75.124,51.524,75.109,45.229z
	 M102.273,54.967l-6.112-29.735h-8.302l-12.95,29.735h7.835l1.625-4.246h9.879l0.85,4.246H102.273z"/>
</svg>
