<svg version="1.1" id="Layer_1" xmlns="http://www.w3.org/2000/svg" xmlns:xlink="http://www.w3.org/1999/xlink" x="0" y="0" viewBox="0 0 368.8 124.3" xml:space="preserve"><path fill="#6CB33F" d="M143 116.8l-3-7.1h1.5l2.4 6 5.6-6h1.7l-7 7.3-1.2 4.6h-1.3z"/><defs><path id="SVGID_1_" d="M0 0h368.8v124.3H0z"/></defs><clipPath id="SVGID_2_"><use xlink:href="#SVGID_1_" overflow="visible"/></clipPath><path clip-path="url(#SVGID_2_)" fill="#6CB33F" d="M149.1 117.8c0-2.7 2.4-5.2 5.2-5.2 2.4 0 4 1.6 4 3.9 0 2.8-2.4 5.3-5.2 5.3-2.4 0-4-1.7-4-4m7.8-1.2c0-1.8-1.1-2.8-2.8-2.8-2 0-3.8 2-3.8 4 0 1.8 1.1 2.8 2.8 2.8 2 0 3.8-1.9 3.8-4M160.1 119c0-.4.1-.9.2-1.4l1.3-4.9h1.3l-1.3 5c-.1.3-.1.7-.1 1 0 1.2.7 1.8 2 1.8 1.4 0 2.7-1.2 3.2-2.9l1.3-4.9h1.3l-2.3 8.8h-1.3l.4-1.4c-.8.9-1.7 1.6-3.1 1.6-1.8.1-2.9-1-2.9-2.7M172.2 112.8h1.3l-.6 2.3c1.1-1.5 2.4-2.5 4.2-2.4l-.4 1.4h-.1c-1.9 0-3.8 1.4-4.5 4.1l-.9 3.5h-1.3l2.3-8.9zM187.6 110.9h-4l.4-1.2h9.3l-.3 1.2h-4l-2.9 10.7h-1.3zM193 112.8h1.3l-.6 2.3c1.1-1.5 2.4-2.5 4.2-2.4l-.4 1.4h-.1c-1.9 0-3.8 1.4-4.5 4.1l-.9 3.5h-1.3l2.3-8.9zM198.2 119c0-.4.1-.9.2-1.4l1.3-4.9h1.3l-1.3 5c-.1.3-.1.7-.1 1 0 1.2.7 1.8 2 1.8 1.4 0 2.7-1.2 3.2-2.9l1.3-4.9h1.3l-2.3 8.8h-1.3l.4-1.4c-.8.9-1.7 1.6-3.1 1.6-1.8.1-2.9-1-2.9-2.7M207.6 120.2l.8-.8c1 .9 2 1.3 3.1 1.3 1 0 1.9-.6 1.9-1.5 0-.6-.4-1-1.7-1.5-1.6-.6-2.5-1.2-2.5-2.4 0-1.5 1.3-2.7 3.3-2.7 1.3 0 2.5.6 3.2 1.2l-.8.9c-.7-.6-1.6-1-2.6-1-1.2 0-1.9.7-1.9 1.4 0 .6.4 1 1.8 1.5 1.6.6 2.4 1.3 2.4 2.4 0 1.6-1.5 2.8-3.4 2.8-1.2 0-2.6-.5-3.6-1.6M217.2 120c0-.3.1-.6.1-.9l1.4-5.1h-1.2l.3-1.2h1.2l.7-2.7h1.3l-.7 2.7h2.8l-.3 1.2H220l-1.4 5.1c0 .2-.1.5-.1.6 0 .6.5.9 1.2.9.4 0 .8-.1 1.3-.3l-.3 1.2c-.5.2-.9.3-1.4.3-1.2-.1-2.1-.7-2.1-1.8M224.7 118c0 1.6 1 2.7 2.7 2.7 1.1 0 1.9-.4 2.7-1l.7.9c-.9.7-1.9 1.3-3.5 1.3-2.3 0-3.9-1.5-3.9-3.7 0-2.7 2.2-5.4 5.1-5.4 2.2 0 3.4 1.5 3.4 3.4 0 .6-.1 1.2-.3 1.7h-6.9v.1m5.9-1.4c0-.2.1-.4.1-.7 0-1.2-.7-2.3-2.2-2.3-1.7 0-3 1.3-3.5 2.9h5.6zM233.4 118.1c0-3.1 2.4-5.5 4.9-5.5 1.8 0 2.8 1 3.3 2.2l1.5-5.6h1.3l-3.3 12.4h-1.3l.4-1.5c-.8 1-1.9 1.7-3.3 1.7-2 0-3.5-1.5-3.5-3.7m7.8-1.6c0-1.5-1.1-2.7-2.7-2.7-2.1 0-3.7 1.9-3.7 4.2 0 1.6 1 2.7 2.5 2.7 1.9-.1 3.9-2.1 3.9-4.2M256.8 109.6h1.3l2.2 12H259l-.5-3.1H252l-2.2 3.1h-1.5l8.5-12zm1.4 7.6l-1.1-6.1-4.4 6.1h5.5zM261.2 122.8l.8-.9c.9.8 2.1 1.3 3.5 1.3 1.1 0 1.9-.4 2.5-.9.5-.5.8-1.2 1.1-2.1l.2-.9c-.9.9-1.9 1.6-3.4 1.6-1.8 0-3.6-1.2-3.6-3.3 0-2.9 2.5-5 4.9-5 1.9 0 2.7 1.1 3.2 2.1l.5-1.9h1.3l-2 7.5c-.4 1.4-.8 2.1-1.4 2.8-.8.8-1.9 1.2-3.4 1.2s-3.1-.5-4.2-1.5m8.8-6.6c0-1.3-1-2.5-2.7-2.5-1.9 0-3.6 1.5-3.6 3.7 0 1.6 1.2 2.4 2.6 2.4 2 0 3.7-1.8 3.7-3.6M275.4 112.8h1.3l-2.4 8.8H273l2.4-8.8zm.8-3.4h1.5l-.4 1.4h-1.5l.4-1.4zM280.8 109.2h1.3l-3.3 12.4h-1.3zM283.7 118c0 1.6 1 2.7 2.7 2.7 1.1 0 1.9-.4 2.7-1l.7.9c-.9.7-1.9 1.3-3.5 1.3-2.3 0-3.9-1.5-3.9-3.7 0-2.7 2.2-5.4 5.1-5.4 2.2 0 3.4 1.5 3.4 3.4 0 .6-.1 1.2-.3 1.7h-6.9v.1m5.9-1.4c0-.2.1-.4.1-.7 0-1.2-.7-2.3-2.2-2.3-1.7 0-3 1.3-3.5 2.9h5.6zM304.6 109.6h1.3l2.2 12h-1.4l-.5-3.1h-6.5l-2.2 3.1H296l8.6-12zm1.4 7.6l-1.1-6.1-4.4 6.1h5.5zM310.1 118.1c0-3.1 2.4-5.5 4.9-5.5 1.8 0 2.8 1 3.3 2.2l1.5-5.6h1.3l-3.3 12.4h-1.3l.4-1.5c-.8 1-1.9 1.7-3.3 1.7-2 0-3.5-1.5-3.5-3.7m7.7-1.6c0-1.5-1.1-2.7-2.7-2.7-2.1 0-3.7 1.9-3.7 4.2 0 1.6 1 2.7 2.5 2.7 2-.1 3.9-2.1 3.9-4.2M321.9 112.8h1.4l1 7.3 4.8-7.3h1.5l-6.1 8.8h-1.2zM332.8 112.8h1.3l-2.4 8.8h-1.3l2.4-8.8zm.8-3.4h1.5l-.4 1.4h-1.5l.4-1.4zM334.4 120.2l.8-.8c1 .9 2 1.3 3.1 1.3 1 0 1.9-.6 1.9-1.5 0-.6-.4-1-1.7-1.5-1.6-.6-2.5-1.2-2.5-2.4 0-1.5 1.3-2.7 3.3-2.7 1.3 0 2.5.6 3.2 1.2l-.8.9c-.7-.6-1.6-1-2.6-1-1.2 0-1.9.7-1.9 1.4 0 .6.4 1 1.8 1.5 1.6.6 2.4 1.3 2.4 2.4 0 1.6-1.5 2.8-3.4 2.8-1.2 0-2.6-.5-3.6-1.6M343.8 117.8c0-2.7 2.4-5.2 5.2-5.2 2.4 0 4 1.6 4 3.9 0 2.8-2.4 5.3-5.2 5.3-2.4 0-4-1.7-4-4m7.8-1.2c0-1.8-1.1-2.8-2.8-2.8-2 0-3.8 2-3.8 4 0 1.8 1.1 2.8 2.8 2.8 2 0 3.8-1.9 3.8-4M356.4 112.8h1.3l-.6 2.3c1.1-1.5 2.4-2.5 4.2-2.4l-.3 1.3h-.1c-1.9 0-3.8 1.4-4.5 4.1l-.9 3.5h-1.3l2.2-8.8zM360.5 120.2l.8-.8c1 .9 2 1.3 3.1 1.3 1 0 1.9-.6 1.9-1.5 0-.6-.4-1-1.7-1.5-1.6-.6-2.5-1.2-2.5-2.4 0-1.5 1.3-2.7 3.3-2.7 1.3 0 2.5.6 3.2 1.2l-.8.9c-.7-.6-1.6-1-2.6-1-1.2 0-1.9.7-1.9 1.4 0 .6.4 1 1.8 1.5 1.6.6 2.4 1.3 2.4 2.4 0 1.6-1.5 2.8-3.4 2.8-1.1 0-2.6-.5-3.6-1.6"/><path clip-path="url(#SVGID_2_)" fill="#007DB1" d="M20.7 72.1C9.5 72.1.5 63.7.5 53.2v-33h7.1v19.6s4.4-5.5 13.1-5.5c11.2 0 20.2 8.4 20.2 18.9 0 10.5-8.9 18.9-20.2 18.9m0-31.3c-7.3 0-13.1 5.4-13.1 12.3s5.8 12.5 13.1 12.5S33.8 60 33.8 53.1c0-6.8-5.8-12.3-13.1-12.3M66.8 40.7c-7.8 0-13.1 6-13.1 12.7v18.7h-7.1V53.4c0-10.7 8.8-19.2 20.2-19.2v6.5zM113.8 72.1H85.4c-6.7 0-11.9-4.8-11.9-11 0-6.3 5.3-11.2 11.9-11.2l7.6.1v6.6h-7.6c-2.7 0-4.9 1.9-4.9 4.5 0 2.5 2.2 4.5 4.9 4.5h18.1s-1.6-1.8-1.6-4.6v-8.1c0-7.1-6.1-12-13.2-12H73.5v-6.6h15.2c11.2 0 20.2 8 20.2 18.6V61c0 2.5 2.1 4.6 4.8 4.6v6.5zM123.2 26.9c-2 0-3.6-1.5-3.6-3.3 0-1.9 1.6-3.4 3.6-3.4s3.5 1.5 3.5 3.4-1.6 3.3-3.5 3.3m3.5 45.2h-7.1V34.2h7.1v37.9zM173.7 72.1h-6.9V53.4c0-6.9-5.9-12.6-13.2-12.6-7.3 0-13.2 5.7-13.2 12.6v18.7h-7V53.4c0-10.6 9.1-19.2 20.2-19.2s20.1 8.6 20.1 19.2v18.7zM203 72c-11.4 0-20.2-8.4-20.2-19.2V20.2h7.1v14H203v6.6h-13.1v12c0 6.7 5.3 12.7 13.1 12.7V72zM228.8 40.7c-7.8 0-13.1 6-13.1 12.7v18.7h-7.1V53.4c0-10.7 8.8-19.2 20.2-19.2v6.5zM274.7 34.2v18.7c0 10.6-9.1 19.2-20.2 19.2s-20.2-8.6-20.2-19.2V34.2h7v18.7c0 6.8 5.9 12.7 13.2 12.7 7.3 0 13.2-5.8 13.2-12.7V34.2h7zM302.7 72.1h-6.2v-6.4h6.2c7.1 0 12.8-5.8 12.8-12.6 0-8-6-12.3-12.8-12.3-2.1 0-3.8 1.3-4.6 2.9l-10.4 22c-1.8 3.8-5.6 6.4-10.1 6.4h-2.3v-6.5h2c2.1 0 3.7-1.3 4.3-2.8L292 41.1c2-4 6-6.8 10.6-6.8 11 0 19.9 8.3 19.9 18.8-.1 10.5-8.9 19-19.8 19M348.3 72c-11.4 0-20.2-8.4-20.2-19.2V20.2h7.1v14h13.1v6.6h-13.1v12c0 6.7 5.3 12.7 13.1 12.7V72zM1.4 11V5.2H0V4h1.4V1.1h1.5V4h3.2v1.3H2.9v5.6c0 1.2.7 1.6 1.7 1.6.5 0 .9-.1 1.5-.3v1.2c-.5.3-1.1.4-1.8.4-1.7-.1-2.9-.8-2.9-2.8M8.8 0h1.5v5.6c.7-1 1.7-1.9 3.5-1.9 2.4 0 3.9 1.6 3.9 3.8v6h-1.5V7.9c0-1.8-1-2.9-2.8-2.9-1.7 0-3 1.2-3 3v5.5H8.8V0zM25.3 12.5c1.4 0 2.4-.5 3.2-1.4l.9.8c-1 1.1-2.2 1.8-4.2 1.8-2.8 0-5.1-2-5.1-5 0-2.8 2.1-5 4.9-5 3 0 4.7 2.3 4.7 5.1v.5h-8c.3 2.1 1.8 3.2 3.6 3.2m3-4.3C28.1 6.4 27 5 25 5c-1.7 0-3.1 1.4-3.3 3.2h6.6zM.7 91.5c0-4 3.2-7.3 7.5-7.3 2.8 0 4.5 1.1 5.9 2.5l-1.4 1.4C11.5 87 10.2 86 8.2 86c-3 0-5.2 2.4-5.2 5.4 0 3 2.3 5.4 5.4 5.4 1.9 0 3.3-.9 4.5-2.1l1.4 1.2c-1.5 1.6-3.2 2.7-6 2.7-4.4.1-7.6-3.2-7.6-7.1M16.4 91.5c0-4 3.2-7.3 7.6-7.3 4.4 0 7.6 3.3 7.6 7.2 0 3.9-3.3 7.2-7.7 7.2-4.3.1-7.5-3.2-7.5-7.1m13.1 0c0-3-2.4-5.5-5.4-5.5-3.2 0-5.3 2.4-5.3 5.4 0 3 2.3 5.4 5.4 5.4 3.1 0 5.3-2.4 5.3-5.3M35.6 84.5h2.2v2.4c1-1.5 2.5-2.7 5-2.7 3.5 0 5.6 2.3 5.6 5.6v8.6h-2.2v-8.1c0-2.6-1.5-4.2-4-4.2s-4.4 1.7-4.4 4.3v7.9h-2.2V84.5zM51.8 96.6l1.1-1.5c1.6 1.1 3.3 1.8 5.1 1.8 1.8 0 3-.9 3-2.2v-.1c0-1.4-1.7-1.9-3.6-2.4-2.3-.6-4.8-1.4-4.8-3.9v-.1c0-2.4 2.1-4 5-4 1.8 0 3.8.6 5.3 1.5l-1 1.6c-1.4-.8-2.9-1.3-4.3-1.3-1.7 0-2.8.9-2.8 2 0 1.3 1.8 1.8 3.8 2.4 2.3.6 4.7 1.5 4.7 4v.1c0 2.6-2.3 4.2-5.2 4.2-2.3-.1-4.6-.8-6.3-2.1M66.9 93.1v-8.6h2.2v8.1c0 2.6 1.5 4.2 4 4.2s4.4-1.7 4.4-4.4v-7.9h2.2v13.9h-2.2V96c-1 1.5-2.5 2.7-5 2.7-3.5 0-5.6-2.3-5.6-5.6M84.7 78.8h2.2v19.6h-2.2zM92.7 94.7v-8.4h-2v-1.8h2v-4.2h2.2v4.2h4.6v1.8h-4.6v8.1c0 1.7 1 2.3 2.5 2.3.7 0 1.4-.1 2.1-.5V98c-.8.4-1.6.6-2.6.6-2.4 0-4.2-1.1-4.2-3.9M103.5 79.2h2.5v2.3h-2.5v-2.3zm.1 5.3h2.2v13.9h-2.2V84.5zM110.8 84.5h2.2v2.4c1-1.5 2.5-2.7 5-2.7 3.5 0 5.6 2.3 5.6 5.6v8.6h-2.2v-8.1c0-2.6-1.5-4.2-4-4.2s-4.4 1.7-4.4 4.3v7.9h-2.2V84.5zM128.1 100.8l1-1.6c1.7 1.1 3.5 1.8 5.6 1.8 3.2 0 5.3-1.7 5.3-4.9v-1.6c-1.3 1.6-3.1 2.9-5.7 2.9-3.5 0-6.9-2.5-6.9-6.5v-.1c0-4.1 3.4-6.6 6.9-6.6 2.7 0 4.5 1.3 5.7 2.8v-2.5h2.2V96c0 2.1-.7 3.8-1.9 4.9-1.3 1.2-3.3 1.9-5.6 1.9-2.4-.1-4.7-.7-6.6-2m12-10c0-2.9-2.6-4.7-5.4-4.7-2.8 0-5.1 1.8-5.1 4.7v.1c0 2.8 2.3 4.7 5.1 4.7 2.8-.1 5.4-2 5.4-4.8M155.3 100.8l1-1.6c1.7 1.1 3.5 1.8 5.6 1.8 3.2 0 5.3-1.7 5.3-4.9v-1.6c-1.3 1.6-3.1 2.9-5.7 2.9-3.5 0-6.9-2.5-6.9-6.5v-.1c0-4.1 3.4-6.6 6.9-6.6 2.7 0 4.5 1.3 5.7 2.8v-2.5h2.2V96c0 2.1-.7 3.8-1.9 4.9-1.3 1.2-3.3 1.9-5.6 1.9-2.4-.1-4.6-.7-6.6-2m12-10c0-2.9-2.6-4.7-5.4-4.7-2.8 0-5.1 1.8-5.1 4.7v.1c0 2.8 2.3 4.7 5.1 4.7 2.8-.1 5.4-2 5.4-4.8M174.3 84.5h2.2v3.6c1.1-2.3 3.2-4 6-3.9v2.2h-.2c-3.2 0-5.8 2.2-5.8 6.4v5.5h-2.2V84.5zM184.2 91.5c0-4 3.2-7.3 7.6-7.3 4.4 0 7.6 3.3 7.6 7.2 0 3.9-3.3 7.2-7.7 7.2-4.3.1-7.5-3.2-7.5-7.1m13 0c0-3-2.3-5.5-5.4-5.5-3.2 0-5.3 2.4-5.3 5.4 0 3 2.3 5.4 5.4 5.4 3.1 0 5.3-2.4 5.3-5.3M203.1 93.1v-8.6h2.2v8.1c0 2.6 1.5 4.2 4 4.2s4.4-1.7 4.4-4.4v-7.9h2.2v13.9h-2.2V96c-1 1.5-2.5 2.7-5 2.7-3.5 0-5.6-2.3-5.6-5.6M220.8 84.5h2.2v2.8c1.2-1.7 2.9-3.1 5.6-3.1 3.5 0 7 2.6 7 7.2 0 4.5-3.4 7.2-7 7.2-2.7 0-4.5-1.4-5.6-2.9v6.9h-2.2V84.5zm12.5 7c0-3.3-2.4-5.4-5.1-5.4-2.7 0-5.3 2.2-5.3 5.3 0 3.2 2.6 5.4 5.3 5.4 2.8 0 5.1-2 5.1-5.3M352.2 39.9l.5-.5c.7.6 1.4.9 2.4.9.9 0 1.5-.5 1.5-1.1 0-.6-.3-.9-1.8-1.2-1.6-.3-2.3-.8-2.3-1.9 0-1 1-1.8 2.3-1.8 1 0 1.7.3 2.4.8l-.5.6c-.6-.5-1.3-.7-2-.7-.9 0-1.5.5-1.5 1.1 0 .6.4 1 1.9 1.3 1.5.3 2.2.8 2.2 1.8 0 1.1-1 1.8-2.3 1.8-1.1-.1-2-.4-2.8-1.1M358.9 34.3h.8l2.5 3.6 2.5-3.6h.8v6.5h-.8v-5.2l-2.5 3.4-2.5-3.4v5.2h-.8z"/></svg>