<?xml version="1.0" encoding="utf-8"?>
<!-- Generator: Adobe Illustrator 18.0.0, SVG Export Plug-In . SVG Version: 6.00 Build 0)  -->
<!DOCTYPE svg PUBLIC "-//W3C//DTD SVG 1.1//EN" "http://www.w3.org/Graphics/SVG/1.1/DTD/svg11.dtd">
<svg version="1.1" id="Layer_1" xmlns="http://www.w3.org/2000/svg" xmlns:xlink="http://www.w3.org/1999/xlink" x="0px" y="0px"
	 viewBox="0 0 368.8 124.3" enable-background="new 0 0 368.8 124.3" xml:space="preserve">
<g>
	<polygon fill="#6CB33F" points="143,116.8 140,109.7 141.5,109.7 143.9,115.7 149.5,109.7 151.2,109.7 144.2,117 143,121.6 
		141.7,121.6 	"/>
	<g>
		<defs>
			<rect id="SVGID_1_" width="368.8" height="124.3"/>
		</defs>
		<clipPath id="SVGID_2_">
			<use xlink:href="#SVGID_1_"  overflow="visible"/>
		</clipPath>
		<path clip-path="url(#SVGID_2_)" fill="#6CB33F" d="M149.1,117.8c0-2.7,2.4-5.2,5.2-5.2c2.4,0,4,1.6,4,3.9c0,2.8-2.4,5.3-5.2,5.3
			C150.7,121.8,149.1,120.1,149.1,117.8 M156.9,116.6c0-1.8-1.1-2.8-2.8-2.8c-2,0-3.8,2-3.8,4c0,1.8,1.1,2.8,2.8,2.8
			C155.1,120.6,156.9,118.7,156.9,116.6"/>
		<path clip-path="url(#SVGID_2_)" fill="#6CB33F" d="M160.1,119c0-0.4,0.1-0.9,0.2-1.4l1.3-4.9h1.3l-1.3,5c-0.1,0.3-0.1,0.7-0.1,1
			c0,1.2,0.7,1.8,2,1.8c1.4,0,2.7-1.2,3.2-2.9l1.3-4.9h1.3l-2.3,8.8h-1.3l0.4-1.4c-0.8,0.9-1.7,1.6-3.1,1.6
			C161.2,121.8,160.1,120.7,160.1,119"/>
		<path clip-path="url(#SVGID_2_)" fill="#6CB33F" d="M172.2,112.8h1.3l-0.6,2.3c1.1-1.5,2.4-2.5,4.2-2.4l-0.4,1.4h-0.1
			c-1.9,0-3.8,1.4-4.5,4.1l-0.9,3.5h-1.3L172.2,112.8z"/>
		<polygon clip-path="url(#SVGID_2_)" fill="#6CB33F" points="187.6,110.9 183.6,110.9 184,109.7 193.3,109.7 193,110.9 189,110.9 
			186.1,121.6 184.8,121.6 		"/>
		<path clip-path="url(#SVGID_2_)" fill="#6CB33F" d="M193,112.8h1.3l-0.6,2.3c1.1-1.5,2.4-2.5,4.2-2.4l-0.4,1.4h-0.1
			c-1.9,0-3.8,1.4-4.5,4.1l-0.9,3.5h-1.3L193,112.8z"/>
		<path clip-path="url(#SVGID_2_)" fill="#6CB33F" d="M198.2,119c0-0.4,0.1-0.9,0.2-1.4l1.3-4.9h1.3l-1.3,5c-0.1,0.3-0.1,0.7-0.1,1
			c0,1.2,0.7,1.8,2,1.8c1.4,0,2.7-1.2,3.2-2.9l1.3-4.9h1.3l-2.3,8.8h-1.3l0.4-1.4c-0.8,0.9-1.7,1.6-3.1,1.6
			C199.3,121.8,198.2,120.7,198.2,119"/>
		<path clip-path="url(#SVGID_2_)" fill="#6CB33F" d="M207.6,120.2l0.8-0.8c1,0.9,2,1.3,3.1,1.3c1,0,1.9-0.6,1.9-1.5
			c0-0.6-0.4-1-1.7-1.5c-1.6-0.6-2.5-1.2-2.5-2.4c0-1.5,1.3-2.7,3.3-2.7c1.3,0,2.5,0.6,3.2,1.2l-0.8,0.9c-0.7-0.6-1.6-1-2.6-1
			c-1.2,0-1.9,0.7-1.9,1.4c0,0.6,0.4,1,1.8,1.5c1.6,0.6,2.4,1.3,2.4,2.4c0,1.6-1.5,2.8-3.4,2.8C210,121.8,208.6,121.3,207.6,120.2"
			/>
		<path clip-path="url(#SVGID_2_)" fill="#6CB33F" d="M217.2,120c0-0.3,0.1-0.6,0.1-0.9l1.4-5.1h-1.2l0.3-1.2h1.2l0.7-2.7h1.3
			l-0.7,2.7h2.8l-0.3,1.2H220l-1.4,5.1c0,0.2-0.1,0.5-0.1,0.6c0,0.6,0.5,0.9,1.2,0.9c0.4,0,0.8-0.1,1.3-0.3l-0.3,1.2
			c-0.5,0.2-0.9,0.3-1.4,0.3C218.1,121.7,217.2,121.1,217.2,120"/>
		<path clip-path="url(#SVGID_2_)" fill="#6CB33F" d="M224.7,118c0,1.6,1,2.7,2.7,2.7c1.1,0,1.9-0.4,2.7-1l0.7,0.9
			c-0.9,0.7-1.9,1.3-3.5,1.3c-2.3,0-3.9-1.5-3.9-3.7c0-2.7,2.2-5.4,5.1-5.4c2.2,0,3.4,1.5,3.4,3.4c0,0.6-0.1,1.2-0.3,1.7h-6.9
			C224.7,117.8,224.7,117.9,224.7,118 M230.6,116.6c0-0.2,0.1-0.4,0.1-0.7c0-1.2-0.7-2.3-2.2-2.3c-1.7,0-3,1.3-3.5,2.9H230.6z"/>
		<path clip-path="url(#SVGID_2_)" fill="#6CB33F" d="M233.4,118.1c0-3.1,2.4-5.5,4.9-5.5c1.8,0,2.8,1,3.3,2.2l1.5-5.6h1.3
			l-3.3,12.4h-1.3l0.4-1.5c-0.8,1-1.9,1.7-3.3,1.7C234.9,121.8,233.4,120.3,233.4,118.1 M241.2,116.5c0-1.5-1.1-2.7-2.7-2.7
			c-2.1,0-3.7,1.9-3.7,4.2c0,1.6,1,2.7,2.5,2.7C239.2,120.6,241.2,118.6,241.2,116.5"/>
		<path clip-path="url(#SVGID_2_)" fill="#6CB33F" d="M256.8,109.6h1.3l2.2,12H259l-0.5-3.1h-6.5l-2.2,3.1h-1.5L256.8,109.6z
			 M258.2,117.2l-1.1-6.1l-4.4,6.1H258.2z"/>
		<path clip-path="url(#SVGID_2_)" fill="#6CB33F" d="M261.2,122.8l0.8-0.9c0.9,0.8,2.1,1.3,3.5,1.3c1.1,0,1.9-0.4,2.5-0.9
			c0.5-0.5,0.8-1.2,1.1-2.1l0.2-0.9c-0.9,0.9-1.9,1.6-3.4,1.6c-1.8,0-3.6-1.2-3.6-3.3c0-2.9,2.5-5,4.9-5c1.9,0,2.7,1.1,3.2,2.1
			l0.5-1.9h1.3l-2,7.5c-0.4,1.4-0.8,2.1-1.4,2.8c-0.8,0.8-1.9,1.2-3.4,1.2C263.9,124.3,262.3,123.8,261.2,122.8 M270,116.2
			c0-1.3-1-2.5-2.7-2.5c-1.9,0-3.6,1.5-3.6,3.7c0,1.6,1.2,2.4,2.6,2.4C268.3,119.8,270,118,270,116.2"/>
		<path clip-path="url(#SVGID_2_)" fill="#6CB33F" d="M275.4,112.8h1.3l-2.4,8.8H273L275.4,112.8z M276.2,109.4h1.5l-0.4,1.4h-1.5
			L276.2,109.4z"/>
		<polygon clip-path="url(#SVGID_2_)" fill="#6CB33F" points="280.8,109.2 282.1,109.2 278.8,121.6 277.5,121.6 		"/>
		<path clip-path="url(#SVGID_2_)" fill="#6CB33F" d="M283.7,118c0,1.6,1,2.7,2.7,2.7c1.1,0,1.9-0.4,2.7-1l0.7,0.9
			c-0.9,0.7-1.9,1.3-3.5,1.3c-2.3,0-3.9-1.5-3.9-3.7c0-2.7,2.2-5.4,5.1-5.4c2.2,0,3.4,1.5,3.4,3.4c0,0.6-0.1,1.2-0.3,1.7h-6.9
			C283.7,117.8,283.7,117.9,283.7,118 M289.6,116.6c0-0.2,0.1-0.4,0.1-0.7c0-1.2-0.7-2.3-2.2-2.3c-1.7,0-3,1.3-3.5,2.9H289.6z"/>
		<path clip-path="url(#SVGID_2_)" fill="#6CB33F" d="M304.6,109.6h1.3l2.2,12h-1.4l-0.5-3.1h-6.5l-2.2,3.1H296L304.6,109.6z
			 M306,117.2l-1.1-6.1l-4.4,6.1H306z"/>
		<path clip-path="url(#SVGID_2_)" fill="#6CB33F" d="M310.1,118.1c0-3.1,2.4-5.5,4.9-5.5c1.8,0,2.8,1,3.3,2.2l1.5-5.6h1.3
			l-3.3,12.4h-1.3l0.4-1.5c-0.8,1-1.9,1.7-3.3,1.7C311.6,121.8,310.1,120.3,310.1,118.1 M317.8,116.5c0-1.5-1.1-2.7-2.7-2.7
			c-2.1,0-3.7,1.9-3.7,4.2c0,1.6,1,2.7,2.5,2.7C315.9,120.6,317.8,118.6,317.8,116.5"/>
		<polygon clip-path="url(#SVGID_2_)" fill="#6CB33F" points="321.9,112.8 323.3,112.8 324.3,120.1 329.1,112.8 330.6,112.8 
			324.5,121.6 323.3,121.6 		"/>
		<path clip-path="url(#SVGID_2_)" fill="#6CB33F" d="M332.8,112.8h1.3l-2.4,8.8h-1.3L332.8,112.8z M333.6,109.4h1.5l-0.4,1.4h-1.5
			L333.6,109.4z"/>
		<path clip-path="url(#SVGID_2_)" fill="#6CB33F" d="M334.4,120.2l0.8-0.8c1,0.9,2,1.3,3.1,1.3c1,0,1.9-0.6,1.9-1.5
			c0-0.6-0.4-1-1.7-1.5c-1.6-0.6-2.5-1.2-2.5-2.4c0-1.5,1.3-2.7,3.3-2.7c1.3,0,2.5,0.6,3.2,1.2l-0.8,0.9c-0.7-0.6-1.6-1-2.6-1
			c-1.2,0-1.9,0.7-1.9,1.4c0,0.6,0.4,1,1.8,1.5c1.6,0.6,2.4,1.3,2.4,2.4c0,1.6-1.5,2.8-3.4,2.8C336.8,121.8,335.4,121.3,334.4,120.2
			"/>
		<path clip-path="url(#SVGID_2_)" fill="#6CB33F" d="M343.8,117.8c0-2.7,2.4-5.2,5.2-5.2c2.4,0,4,1.6,4,3.9c0,2.8-2.4,5.3-5.2,5.3
			C345.4,121.8,343.8,120.1,343.8,117.8 M351.6,116.6c0-1.8-1.1-2.8-2.8-2.8c-2,0-3.8,2-3.8,4c0,1.8,1.1,2.8,2.8,2.8
			C349.8,120.6,351.6,118.7,351.6,116.6"/>
		<path clip-path="url(#SVGID_2_)" fill="#6CB33F" d="M356.4,112.8h1.3l-0.6,2.3c1.1-1.5,2.4-2.5,4.2-2.4L361,114h-0.1
			c-1.9,0-3.8,1.4-4.5,4.1l-0.9,3.5h-1.3L356.4,112.8z"/>
		<path clip-path="url(#SVGID_2_)" fill="#6CB33F" d="M360.5,120.2l0.8-0.8c1,0.9,2,1.3,3.1,1.3c1,0,1.9-0.6,1.9-1.5
			c0-0.6-0.4-1-1.7-1.5c-1.6-0.6-2.5-1.2-2.5-2.4c0-1.5,1.3-2.7,3.3-2.7c1.3,0,2.5,0.6,3.2,1.2l-0.8,0.9c-0.7-0.6-1.6-1-2.6-1
			c-1.2,0-1.9,0.7-1.9,1.4c0,0.6,0.4,1,1.8,1.5c1.6,0.6,2.4,1.3,2.4,2.4c0,1.6-1.5,2.8-3.4,2.8C363,121.8,361.5,121.3,360.5,120.2"
			/>
		<path clip-path="url(#SVGID_2_)" fill="#007DB1" d="M20.7,72.1c-11.2,0-20.2-8.4-20.2-18.9v-33h7.1v19.6c0,0,4.4-5.5,13.1-5.5
			c11.2,0,20.2,8.4,20.2,18.9C40.9,63.7,32,72.1,20.7,72.1 M20.7,40.8c-7.3,0-13.1,5.4-13.1,12.3c0,6.9,5.8,12.5,13.1,12.5
			c7.3,0,13.1-5.6,13.1-12.5C33.8,46.3,28,40.8,20.7,40.8"/>
		<path clip-path="url(#SVGID_2_)" fill="#007DB1" d="M66.8,40.7c-7.8,0-13.1,6-13.1,12.7v18.7h-7.1V53.4c0-10.7,8.8-19.2,20.2-19.2
			V40.7z"/>
		<path clip-path="url(#SVGID_2_)" fill="#007DB1" d="M113.8,72.1H85.4c-6.7,0-11.9-4.8-11.9-11c0-6.3,5.3-11.2,11.9-11.2l7.6,0.1
			v6.6h-7.6c-2.7,0-4.9,1.9-4.9,4.5c0,2.5,2.2,4.5,4.9,4.5h18.1c0,0-1.6-1.8-1.6-4.6v-8.1c0-7.1-6.1-12-13.2-12H73.5v-6.6h15.2
			c11.2,0,20.2,8,20.2,18.6V61c0,2.5,2.1,4.6,4.8,4.6V72.1z"/>
		<path clip-path="url(#SVGID_2_)" fill="#007DB1" d="M123.2,26.9c-2,0-3.6-1.5-3.6-3.3c0-1.9,1.6-3.4,3.6-3.4c2,0,3.5,1.5,3.5,3.4
			C126.7,25.5,125.1,26.9,123.2,26.9 M126.7,72.1h-7.1V34.2h7.1V72.1z"/>
		<path clip-path="url(#SVGID_2_)" fill="#007DB1" d="M173.7,72.1h-6.9V53.4c0-6.9-5.9-12.6-13.2-12.6c-7.3,0-13.2,5.7-13.2,12.6
			v18.7h-7V53.4c0-10.6,9.1-19.2,20.2-19.2c11.1,0,20.1,8.6,20.1,19.2V72.1z"/>
		<path clip-path="url(#SVGID_2_)" fill="#007DB1" d="M203,72c-11.4,0-20.2-8.4-20.2-19.2V20.2h7.1v14H203v6.6h-13.1v12
			c0,6.7,5.3,12.7,13.1,12.7V72z"/>
		<path clip-path="url(#SVGID_2_)" fill="#007DB1" d="M228.8,40.7c-7.8,0-13.1,6-13.1,12.7v18.7h-7.1V53.4
			c0-10.7,8.8-19.2,20.2-19.2V40.7z"/>
		<path clip-path="url(#SVGID_2_)" fill="#007DB1" d="M274.7,34.2v18.7c0,10.6-9.1,19.2-20.2,19.2c-11.1,0-20.2-8.6-20.2-19.2V34.2
			h7v18.7c0,6.8,5.9,12.7,13.2,12.7c7.3,0,13.2-5.8,13.2-12.7V34.2H274.7z"/>
		<path clip-path="url(#SVGID_2_)" fill="#007DB1" d="M302.7,72.1h-6.2v-6.4h6.2c7.1,0,12.8-5.8,12.8-12.6c0-8-6-12.3-12.8-12.3
			c-2.1,0-3.8,1.3-4.6,2.9l-10.4,22c-1.8,3.8-5.6,6.4-10.1,6.4h-2.3v-6.5h2c2.1,0,3.7-1.3,4.3-2.8L292,41.1c2-4,6-6.8,10.6-6.8
			c11,0,19.9,8.3,19.9,18.8C322.4,63.6,313.6,72.1,302.7,72.1"/>
		<path clip-path="url(#SVGID_2_)" fill="#007DB1" d="M348.3,72c-11.4,0-20.2-8.4-20.2-19.2V20.2h7.1v14h13.1v6.6h-13.1v12
			c0,6.7,5.3,12.7,13.1,12.7V72z"/>
		<path clip-path="url(#SVGID_2_)" fill="#007DB1" d="M1.4,11V5.2H0V4h1.4V1.1h1.5V4h3.2v1.3H2.9v5.6c0,1.2,0.7,1.6,1.7,1.6
			c0.5,0,0.9-0.1,1.5-0.3v1.2c-0.5,0.3-1.1,0.4-1.8,0.4C2.6,13.7,1.4,13,1.4,11"/>
		<path clip-path="url(#SVGID_2_)" fill="#007DB1" d="M8.8,0h1.5v5.6c0.7-1,1.7-1.9,3.5-1.9c2.4,0,3.9,1.6,3.9,3.8v6h-1.5V7.9
			c0-1.8-1-2.9-2.8-2.9c-1.7,0-3,1.2-3,3v5.5H8.8V0z"/>
		<path clip-path="url(#SVGID_2_)" fill="#007DB1" d="M25.3,12.5c1.4,0,2.4-0.5,3.2-1.4l0.9,0.8c-1,1.1-2.2,1.8-4.2,1.8
			c-2.8,0-5.1-2-5.1-5c0-2.8,2.1-5,4.9-5c3,0,4.7,2.3,4.7,5.1c0,0.1,0,0.3,0,0.5h-8C22,11.4,23.5,12.5,25.3,12.5 M28.3,8.2
			C28.1,6.4,27,5,25,5c-1.7,0-3.1,1.4-3.3,3.2H28.3z"/>
		<path clip-path="url(#SVGID_2_)" fill="#007DB1" d="M0.7,91.5L0.7,91.5c0-4,3.2-7.3,7.5-7.3c2.8,0,4.5,1.1,5.9,2.5l-1.4,1.4
			C11.5,87,10.2,86,8.2,86c-3,0-5.2,2.4-5.2,5.4v0c0,3,2.3,5.4,5.4,5.4c1.9,0,3.3-0.9,4.5-2.1l1.4,1.2c-1.5,1.6-3.2,2.7-6,2.7
			C3.9,98.7,0.7,95.4,0.7,91.5"/>
		<path clip-path="url(#SVGID_2_)" fill="#007DB1" d="M16.4,91.5L16.4,91.5c0-4,3.2-7.3,7.6-7.3c4.4,0,7.6,3.3,7.6,7.2v0
			c0,3.9-3.3,7.2-7.7,7.2C19.6,98.7,16.4,95.4,16.4,91.5 M29.5,91.5L29.5,91.5c0-3-2.4-5.5-5.4-5.5c-3.2,0-5.3,2.4-5.3,5.4v0
			c0,3,2.3,5.4,5.4,5.4C27.3,96.8,29.5,94.4,29.5,91.5"/>
		<path clip-path="url(#SVGID_2_)" fill="#007DB1" d="M35.6,84.5h2.2v2.4c1-1.5,2.5-2.7,5-2.7c3.5,0,5.6,2.3,5.6,5.6v8.6h-2.2v-8.1
			c0-2.6-1.5-4.2-4-4.2c-2.5,0-4.4,1.7-4.4,4.3v7.9h-2.2V84.5z"/>
		<path clip-path="url(#SVGID_2_)" fill="#007DB1" d="M51.8,96.6l1.1-1.5c1.6,1.1,3.3,1.8,5.1,1.8c1.8,0,3-0.9,3-2.2v-0.1
			c0-1.4-1.7-1.9-3.6-2.4c-2.3-0.6-4.8-1.4-4.8-3.9v-0.1c0-2.4,2.1-4,5-4c1.8,0,3.8,0.6,5.3,1.5l-1,1.6c-1.4-0.8-2.9-1.3-4.3-1.3
			c-1.7,0-2.8,0.9-2.8,2v0c0,1.3,1.8,1.8,3.8,2.4c2.3,0.6,4.7,1.5,4.7,4v0.1c0,2.6-2.3,4.2-5.2,4.2C55.8,98.6,53.5,97.9,51.8,96.6"
			/>
		<path clip-path="url(#SVGID_2_)" fill="#007DB1" d="M66.9,93.1v-8.6h2.2v8.1c0,2.6,1.5,4.2,4,4.2c2.5,0,4.4-1.7,4.4-4.4v-7.9h2.2
			v13.9h-2.2V96c-1,1.5-2.5,2.7-5,2.7C69,98.7,66.9,96.4,66.9,93.1"/>
		<rect x="84.7" y="78.8" clip-path="url(#SVGID_2_)" fill="#007DB1" width="2.2" height="19.6"/>
		<path clip-path="url(#SVGID_2_)" fill="#007DB1" d="M92.7,94.7v-8.4h-2v-1.8h2v-4.2h2.2v4.2h4.6v1.8h-4.6v8.1c0,1.7,1,2.3,2.5,2.3
			c0.7,0,1.4-0.1,2.1-0.5V98c-0.8,0.4-1.6,0.6-2.6,0.6C94.5,98.6,92.7,97.5,92.7,94.7"/>
		<path clip-path="url(#SVGID_2_)" fill="#007DB1" d="M103.5,79.2h2.5v2.3h-2.5V79.2z M103.6,84.5h2.2v13.9h-2.2V84.5z"/>
		<path clip-path="url(#SVGID_2_)" fill="#007DB1" d="M110.8,84.5h2.2v2.4c1-1.5,2.5-2.7,5-2.7c3.5,0,5.6,2.3,5.6,5.6v8.6h-2.2v-8.1
			c0-2.6-1.5-4.2-4-4.2c-2.5,0-4.4,1.7-4.4,4.3v7.9h-2.2V84.5z"/>
		<path clip-path="url(#SVGID_2_)" fill="#007DB1" d="M128.1,100.8l1-1.6c1.7,1.1,3.5,1.8,5.6,1.8c3.2,0,5.3-1.7,5.3-4.9v-1.6
			c-1.3,1.6-3.1,2.9-5.7,2.9c-3.5,0-6.9-2.5-6.9-6.5v-0.1c0-4.1,3.4-6.6,6.9-6.6c2.7,0,4.5,1.3,5.7,2.8v-2.5h2.2V96
			c0,2.1-0.7,3.8-1.9,4.9c-1.3,1.2-3.3,1.9-5.6,1.9C132.3,102.7,130,102.1,128.1,100.8 M140.1,90.8L140.1,90.8
			c0-2.9-2.6-4.7-5.4-4.7c-2.8,0-5.1,1.8-5.1,4.7v0.1c0,2.8,2.3,4.7,5.1,4.7C137.5,95.5,140.1,93.6,140.1,90.8"/>
		<path clip-path="url(#SVGID_2_)" fill="#007DB1" d="M155.3,100.8l1-1.6c1.7,1.1,3.5,1.8,5.6,1.8c3.2,0,5.3-1.7,5.3-4.9v-1.6
			c-1.3,1.6-3.1,2.9-5.7,2.9c-3.5,0-6.9-2.5-6.9-6.5v-0.1c0-4.1,3.4-6.6,6.9-6.6c2.7,0,4.5,1.3,5.7,2.8v-2.5h2.2V96
			c0,2.1-0.7,3.8-1.9,4.9c-1.3,1.2-3.3,1.9-5.6,1.9C159.5,102.7,157.3,102.1,155.3,100.8 M167.3,90.8L167.3,90.8
			c0-2.9-2.6-4.7-5.4-4.7c-2.8,0-5.1,1.8-5.1,4.7v0.1c0,2.8,2.3,4.7,5.1,4.7C164.7,95.5,167.3,93.6,167.3,90.8"/>
		<path clip-path="url(#SVGID_2_)" fill="#007DB1" d="M174.3,84.5h2.2v3.6c1.1-2.3,3.2-4,6-3.9v2.2h-0.2c-3.2,0-5.8,2.2-5.8,6.4v5.5
			h-2.2V84.5z"/>
		<path clip-path="url(#SVGID_2_)" fill="#007DB1" d="M184.2,91.5L184.2,91.5c0-4,3.2-7.3,7.6-7.3c4.4,0,7.6,3.3,7.6,7.2v0
			c0,3.9-3.3,7.2-7.7,7.2C187.4,98.7,184.2,95.4,184.2,91.5 M197.2,91.5L197.2,91.5c0-3-2.3-5.5-5.4-5.5c-3.2,0-5.3,2.4-5.3,5.4v0
			c0,3,2.3,5.4,5.4,5.4C195,96.8,197.2,94.4,197.2,91.5"/>
		<path clip-path="url(#SVGID_2_)" fill="#007DB1" d="M203.1,93.1v-8.6h2.2v8.1c0,2.6,1.5,4.2,4,4.2c2.5,0,4.4-1.7,4.4-4.4v-7.9h2.2
			v13.9h-2.2V96c-1,1.5-2.5,2.7-5,2.7C205.2,98.7,203.1,96.4,203.1,93.1"/>
		<path clip-path="url(#SVGID_2_)" fill="#007DB1" d="M220.8,84.5h2.2v2.8c1.2-1.7,2.9-3.1,5.6-3.1c3.5,0,7,2.6,7,7.2v0
			c0,4.5-3.4,7.2-7,7.2c-2.7,0-4.5-1.4-5.6-2.9v6.9h-2.2V84.5z M233.3,91.5L233.3,91.5c0-3.3-2.4-5.4-5.1-5.4
			c-2.7,0-5.3,2.2-5.3,5.3v0c0,3.2,2.6,5.4,5.3,5.4C231,96.8,233.3,94.8,233.3,91.5"/>
		<path clip-path="url(#SVGID_2_)" fill="#007DB1" d="M352.2,39.9l0.5-0.5c0.7,0.6,1.4,0.9,2.4,0.9c0.9,0,1.5-0.5,1.5-1.1v0
			c0-0.6-0.3-0.9-1.8-1.2c-1.6-0.3-2.3-0.8-2.3-1.9v0c0-1,1-1.8,2.3-1.8c1,0,1.7,0.3,2.4,0.8l-0.5,0.6c-0.6-0.5-1.3-0.7-2-0.7
			c-0.9,0-1.5,0.5-1.5,1.1v0c0,0.6,0.4,1,1.9,1.3c1.5,0.3,2.2,0.8,2.2,1.8v0c0,1.1-1,1.8-2.3,1.8C353.9,40.9,353,40.6,352.2,39.9"/>
		<polygon clip-path="url(#SVGID_2_)" fill="#007DB1" points="358.9,34.3 359.7,34.3 362.2,37.9 364.7,34.3 365.5,34.3 365.5,40.8 
			364.7,40.8 364.7,35.6 362.2,39 362.2,39 359.7,35.6 359.7,40.8 358.9,40.8 		"/>
	</g>
</g>
</svg>
