<?xml version="1.0" encoding="UTF-8" standalone="no"?>
<svg
   xmlns:dc="http://purl.org/dc/elements/1.1/"
   xmlns:cc="http://creativecommons.org/ns#"
   xmlns:rdf="http://www.w3.org/1999/02/22-rdf-syntax-ns#"
   xmlns:svg="http://www.w3.org/2000/svg"
   xmlns="http://www.w3.org/2000/svg"
   viewBox="0 0 592 593.33331"
   height="593.33331"
   width="592"
   xml:space="preserve"
   id="svg2"
   version="1.1"><metadata
     id="metadata8"><rdf:RDF><cc:Work
         rdf:about=""><dc:format>image/svg+xml</dc:format><dc:type
           rdf:resource="http://purl.org/dc/dcmitype/StillImage" /></cc:Work></rdf:RDF></metadata><defs
     id="defs6" /><g xmlns="http://www.w3.org/2000/svg" transform="matrix(1.3333333,0,0,-1.3333333,0,593.33333)" id="g10"><g transform="scale(0.1)" id="g12"><path id="path18" style="fill:#ffffff;fill-opacity:1;fill-rule:nonzero;stroke:none" d="m 1469.98,3923.63 c 86.25,280.09 95.01,55.23 209.38,-251.84 184.64,-496.05 653.54,-481.33 1150.69,-253.15 375.91,172.51 436.72,306.81 520.63,204.4 115.05,-129.16 -466.47,-709.51 -724.47,-917.45 -43.02,-34.69 -81.15,-66.4 -90.34,-99.13 -33.92,-120.58 77.56,-365.2 191.11,-560.36 138.62,-238.33 331.05,-402.54 498.38,-615.95 67.3,-85.83 101.66,-157.81 66.15,-206.69 -104.59,-144.05 -698.63,177.5 -1121.86,612.27 -486.42,499.7 -923.14,1362.18 -699.67,2087.9"/><path id="path20" style="fill:#ffffff;fill-opacity:1;fill-rule:nonzero;stroke:none" d="m 1637.3,1512.18 c 97.02,-277.84 272.57,59.97 369.27,429.77 -230.78,279.58 -434.42,634.29 -538.5,1004.91 27.11,-619.82 37.67,-1057.85 169.23,-1434.68"/><path id="path22" style="fill:#ffffff;fill-opacity:1;fill-rule:evenodd;stroke:none" d="m 2339.66,4122.94 c 217.21,-33.9 347.18,-240.42 290.23,-461.2 -56.95,-220.75 -279.3,-372.29 -496.51,-338.4 -217.24,33.91 -347.22,240.43 -290.27,461.18 56.96,220.78 279.31,372.32 496.55,338.42"/></g></g></svg>