<?xml version="1.0" encoding="UTF-8" standalone="no"?>
<svg
   xmlns:dc="http://purl.org/dc/elements/1.1/"
   xmlns:cc="http://creativecommons.org/ns#"
   xmlns:rdf="http://www.w3.org/1999/02/22-rdf-syntax-ns#"
   xmlns:svg="http://www.w3.org/2000/svg"
   xmlns="http://www.w3.org/2000/svg"
   viewBox="0 0 592 593.33331"
   height="593.33331"
   width="592"
   xml:space="preserve"
   id="svg2"
   version="1.1"><metadata
     id="metadata8"><rdf:RDF><cc:Work
         rdf:about=""><dc:format>image/svg+xml</dc:format><dc:type
           rdf:resource="http://purl.org/dc/dcmitype/StillImage" /></cc:Work></rdf:RDF></metadata><defs
     id="defs6" /><g
     transform="matrix(1.3333333,0,0,-1.3333333,0,593.33333)"
     id="g10"><g
       transform="scale(0.1)"
       id="g12"><path
         id="path18"
         style="fill:#ffffff;fill-opacity:1;fill-rule:nonzero;stroke:none"
         d="m 1469.98,3923.63 c 86.25,280.09 95.01,55.23 209.38,-251.84 184.64,-496.05 653.54,-481.33 1150.69,-253.15 375.91,172.51 436.72,306.81 520.63,204.4 115.05,-129.16 -466.47,-709.51 -724.47,-917.45 -43.02,-34.69 -81.15,-66.4 -90.34,-99.13 -33.92,-120.58 77.56,-365.2 191.11,-560.36 138.62,-238.33 331.05,-402.54 498.38,-615.95 67.3,-85.83 101.66,-157.81 66.15,-206.69 -104.59,-144.05 -698.63,177.5 -1121.86,612.27 -486.42,499.7 -923.14,1362.18 -699.67,2087.9" /><path
         id="path20"
         style="fill:#ffffff;fill-opacity:1;fill-rule:nonzero;stroke:none"
         d="m 1637.3,1512.18 c 97.02,-277.84 272.57,59.97 369.27,429.77 -230.78,279.58 -434.42,634.29 -538.5,1004.91 27.11,-619.82 37.67,-1057.85 169.23,-1434.68" /><path
         id="path22"
         style="fill:#ffffff;fill-opacity:1;fill-rule:evenodd;stroke:none"
         d="m 2339.66,4122.94 c 217.21,-33.9 347.18,-240.42 290.23,-461.2 -56.95,-220.75 -279.3,-372.29 -496.51,-338.4 -217.24,33.91 -347.22,240.43 -290.27,461.18 56.96,220.78 279.31,372.32 496.55,338.42" /><path
         id="path24"
         style="fill:#ffffff;fill-opacity:1;fill-rule:evenodd;stroke:none"
         d="m 628.371,606.824 v -1.445 l -77.394,68.691 v 490.05 c 0,81.49 77.394,147.21 77.394,16.68 0,-148.81 0,-297.64 0,-446.452 4.059,3.925 8.035,7.808 12.012,11.75 6.57,6.968 13.156,13.937 19.84,21.058 59.097,59.059 118.215,118.192 177.273,177.25 62.848,62.854 66.906,-46.605 33.625,-79.902 C 724.766,718.168 813.242,806.621 676.332,669.695 760.848,577.676 859.547,502.32 947.105,414.109 c 17.118,-17.211 49.598,-57.515 23.954,-80.894 -13.711,-12.527 -34.539,-8.246 -48.625,1.105 -57.52,38.188 -120.539,100.543 -170.422,148.903 -37.395,36.269 -74.231,73.168 -110.731,110.41 v 0.285 l -2.172,1.941 z m 689.999,347.199 c 41.85,0 82.55,-8.015 120.86,-24.902 36.65,-16.125 69.72,-38.402 98.05,-66.695 28.33,-28.332 50.61,-61.442 66.75,-98.071 16.89,-38.324 24.89,-79.031 24.89,-120.859 0,-41.984 -8.09,-82.84 -24.85,-121.355 -16.07,-36.899 -38.29,-70.274 -66.79,-98.758 -28.33,-28.328 -61.46,-50.434 -98.28,-66.219 -38.31,-16.449 -78.96,-24.18 -120.63,-24.18 -41.79,0 -82.57,7.825 -121.09,24.125 -37.11,15.727 -70.5,37.77 -99.02,66.274 -28.47,28.504 -50.55,61.933 -66.24,98.984 -16.33,38.555 -24.14,79.317 -24.14,121.129 0,41.695 7.74,82.305 24.16,120.633 15.78,36.801 37.89,69.93 66.22,98.297 28.48,28.445 61.89,50.683 98.79,66.75 38.5,16.773 79.34,24.847 121.32,24.847 z M 2530.76,746.516 c 1.68,-3.809 1.85,-6.168 1.85,-10.985 0,-129.465 0,-258.953 0,-388.398 v -12.926 h -12.89 c -17.61,0 -35.24,0 -52.83,0 H 2454 v 12.926 c 0,121.203 0,242.289 0,363.265 -1.43,44.954 -17,82.973 -48.91,114.864 -33.38,33.414 -73.34,48.89 -120.41,48.89 -22.22,0 -43.94,-3.882 -64.56,-12.222 -20.69,-8.375 -38.86,-20.926 -54.62,-36.668 -6.23,-6.227 -11.71,-13.196 -16.97,-21.324 0,-152.696 0,-305.368 0,-458.063 v -12.891 h -12.92 c -18,0 -36.05,0 -54.04,0 h -12.93 v 12.891 c 0,152.066 0,304.113 0,456.121 -5.19,8.434 -11.19,16.277 -18.18,23.266 -15.75,15.742 -33.92,28.293 -54.6,36.668 -20.64,8.34 -42.36,12.222 -64.58,12.222 -47.07,0 -87.01,-15.476 -120.42,-48.89 -33.4,-33.375 -48.88,-73.379 -48.88,-120.403 0,-119.644 0,-239.304 0,-358.984 v -12.891 h -12.91 c -17.63,0 -35.22,0 -52.81,0 h -12.93 v 12.891 c 0,129.902 0,259.789 0,389.656 0,4.797 0.19,7.215 1.87,10.965 4.62,28.789 14.05,56.262 28.53,81.621 14.38,25.153 32.7,47.524 54.74,66.352 22.15,18.906 47.32,33.531 74.54,43.808 28.31,10.645 58.03,15.746 88.27,15.746 39.29,0 77.01,-8.683 111.91,-26.828 C 2067.18,914.707 2088.98,899 2108,880 c 18.98,19 40.8,34.707 64.77,47.195 34.92,18.145 72.6,26.828 111.91,26.828 30.23,0 59.96,-5.101 88.28,-15.746 27.21,-10.277 52.38,-24.902 74.5,-43.808 22.08,-18.828 40.41,-41.199 54.76,-66.352 14.49,-25.34 23.94,-52.832 28.54,-81.601 z m 604.17,-310.243 c -18.58,-20.488 -39.73,-38.367 -63.09,-53.691 -50.3,-32.898 -106.39,-48.375 -166.35,-48.375 -41.81,0 -82.57,7.801 -121.11,24.137 -37.09,15.691 -70.52,37.777 -99,66.277 -28.5,28.484 -50.57,61.914 -66.27,98.984 -16.3,38.516 -24.13,79.321 -24.13,121.125 0,41.661 7.77,82.29 24.18,120.633 15.77,36.821 37.89,69.93 66.22,98.262 28.48,28.484 61.86,50.723 98.76,66.809 38.51,16.754 79.37,24.828 121.35,24.828 37.38,0 74.12,-6.285 109.15,-19.442 33.72,-12.754 64.87,-30.843 92.3,-54.222 27.21,-23.192 50.06,-50.625 68.13,-81.469 18.45,-31.508 30.73,-65.723 36.84,-101.535 1.01,-5.063 1.69,-10.184 2.18,-15.364 0.45,-5.066 0.69,-10.109 0.69,-15.195 0,-106.98 0,-213.922 0,-320.902 v -12.926 h -12.89 c -54.34,0 -66.96,-7.391 -66.96,56.164 0,15.285 0,30.594 0,45.902 z m 213.81,189.993 c 1.88,-24.012 7.44,-47.313 16.89,-69.684 11.82,-28.16 28.48,-53.254 49.5,-75.07 22.03,-21.27 47.18,-37.93 75.39,-49.824 28.11,-11.825 57.66,-17.598 88.16,-17.598 30.46,0 60.01,5.773 88.13,17.598 28.2,11.894 53.39,28.593 75.28,49.765 12.7,12.699 24.6,26.676 35.09,41.238 27.74,38.688 97.75,13.727 67.93,-37.066 -27.09,-46.098 -64.39,-82.652 -110.35,-109.801 -47.96,-28.293 -100.55,-41.617 -156.08,-41.617 -41.85,0 -82.61,7.801 -121.13,24.137 -37.1,15.691 -70.52,37.777 -99.02,66.277 -28.49,28.484 -50.55,61.914 -66.24,98.984 -16.33,38.516 -24.16,79.321 -24.16,121.125 0,30.524 -3.43,-21.265 0.72,23.801 0.46,5.199 1.17,10.242 1.94,15.098 4.42,37.754 15.5,73.664 33.59,107.117 17.63,32.609 40.44,61.609 68.14,86.207 27.87,24.711 59.61,43.926 94.27,57.516 35.77,14.051 73.44,20.793 111.89,20.793 38.8,0 76.91,-6.606 113.09,-20.793 34.55,-13.574 66.18,-32.785 93.77,-57.649 27.36,-24.636 49.92,-53.672 67.43,-86.074 17.99,-33.34 29.14,-69.191 33.46,-106.508 0.87,-5.254 1.56,-10.359 2.03,-15.668 0.52,-5.484 0.71,-10.965 0.71,-16.488 0,-4.281 0,-8.586 0,-12.891 v -12.925 h -12.89 c -175.85,0 -351.71,0 -527.54,0 z M 1481.59,479.988 c 21.17,21.895 37.96,47.176 49.82,75.356 11.83,28.14 17.64,57.652 17.64,88.152 0,30.5 -5.81,60.031 -17.64,88.168 -11.86,28.121 -28.44,53.254 -49.5,75.035 -22.04,21.305 -47.16,37.946 -75.37,49.844 -28.12,11.824 -57.63,17.609 -88.17,17.609 -30.48,0 -60.01,-5.785 -88.13,-17.609 -28.14,-11.859 -53.28,-28.484 -75.06,-49.523 -21.26,-22.008 -37.96,-47.176 -49.82,-75.356 -11.82,-28.137 -17.59,-57.668 -17.59,-88.168 0,-30.5 5.77,-60.051 17.59,-88.152 11.82,-28.121 28.44,-53.254 49.52,-75.032 22.01,-21.269 47.16,-37.945 75.36,-49.828 28.12,-11.839 57.65,-17.629 88.13,-17.629 30.5,0 60.05,5.79 88.17,17.629 28.08,11.825 53.39,28.578 75.05,49.504 z m 1587.09,1.215 c 39.1,40.535 61.84,88.285 66.33,144.66 0.04,0.496 0.06,0.973 0.11,1.508 l 0.11,0.949 0.48,1.868 c 0.29,1.16 0.42,2.3 0.42,3.503 0,3.696 0,7.348 0,11.039 0,3.661 0,7.352 0,11.047 0,1.961 -0.31,4.051 -0.84,6.586 l -0.13,0.688 -0.06,0.703 c -0.09,0.777 -0.05,0.226 -0.09,1.121 -4.44,55.996 -26.28,103.344 -65.92,142.984 -22.02,21.286 -47.21,38.024 -75.43,49.883 -28.12,11.863 -57.65,17.633 -88.17,17.633 -30.5,0 -60.03,-5.77 -88.13,-17.633 -28.14,-11.824 -53.27,-28.441 -75.06,-49.48 -21.28,-22.032 -37.94,-47.141 -49.82,-75.379 -11.82,-28.102 -17.63,-57.649 -17.63,-88.153 0,-30.5 5.81,-60.046 17.63,-88.148 11.82,-28.121 28.45,-53.254 49.5,-75.07 22.03,-21.27 47.16,-37.93 75.38,-49.824 28.1,-11.825 57.67,-17.598 88.13,-17.598 30.52,0 60.05,5.773 88.17,17.598 28.05,11.839 53.35,28.593 75.02,49.515 z m 287.77,224.93 c 148.12,0 296.29,0 444.43,0 -3.94,14.183 -9.23,27.949 -15.84,41.203 -11.21,22.406 -25.72,42.723 -42.89,60.637 -21.99,21.269 -47.13,37.91 -75.34,49.769 -28.1,11.863 -57.65,17.633 -88.13,17.633 -30.5,0 -60.05,-5.77 -88.16,-17.633 -28.15,-11.824 -53.34,-28.5 -75.1,-49.539 -17.37,-18.051 -31.93,-38.461 -43.13,-60.867 -6.6,-13.215 -11.88,-27.02 -15.84,-41.203" /><path
         id="path26"
         style="fill:#ffffff;fill-opacity:1;fill-rule:evenodd;stroke:none"
         d="M 628.379,588.121 V 389.84 c 0,-82.77 -77.426,-82.266 -77.426,0.797 v 266.207 l 77.426,-68.723" /></g></g></svg>